<svg width="131" height="130" viewBox="0 0 131 130" fill="none" xmlns="http://www.w3.org/2000/svg">
<g clip-path="url(#clip0_182_10877)">
<path d="M42.2328 40.7992C40.5434 40.7992 39.6987 40.039 39.6987 38.5185V21.2866C39.6987 19.7661 40.5434 19.0059 42.2328 19.0059H59.4648C60.9852 19.0059 61.7455 19.7661 61.7455 21.2866V38.5185C61.7455 40.039 60.9852 40.7992 59.4648 40.7992H42.2328ZM44.5135 23.5673V36.2378H56.9307V23.5673H44.5135ZM72.1353 40.7992C70.6149 40.7992 69.8546 40.039 69.8546 38.5185V21.2866C69.8546 19.7661 70.6149 19.0059 72.1353 19.0059H89.3673C91.0567 19.0059 91.9014 19.7661 91.9014 21.2866V38.5185C91.9014 40.039 91.0567 40.7992 89.3673 40.7992H72.1353ZM74.6694 23.5673V36.2378H87.0866V23.5673H74.6694ZM59.4648 71.7154H42.2328C40.5434 71.7154 39.6987 70.8707 39.6987 69.1813V52.2027C39.6987 50.5133 40.5434 49.6686 42.2328 49.6686H59.4648C60.9852 49.6686 61.7455 50.5133 61.7455 52.2027V69.1813C61.7455 70.8707 60.9852 71.7154 59.4648 71.7154ZM44.5135 54.4834V66.9006H56.9307V54.4834H44.5135ZM72.1353 71.7154C70.6149 71.7154 69.8546 70.8707 69.8546 69.1813V52.2027C69.8546 50.5133 70.6149 49.6686 72.1353 49.6686H89.3673C91.0567 49.6686 91.9014 50.5133 91.9014 52.2027V69.1813C91.9014 70.8707 91.0567 71.7154 89.3673 71.7154H72.1353ZM74.6694 54.4834V66.9006H87.0866V54.4834H74.6694ZM128.393 30.1559C129.913 30.1559 130.673 30.9162 130.673 32.4367V48.4016V65.6335V79.0643V96.2963V124.172C130.673 125.692 129.913 126.452 128.393 126.452H100.771H30.8293H3.20746C1.68699 126.452 0.926758 125.692 0.926758 124.172V96.2963V79.0643V65.6335V48.4016V32.4367C0.926758 30.9162 1.68699 30.1559 3.20746 30.1559H28.5486V5.57505C28.5486 4.05459 29.3088 3.29435 30.8293 3.29435H100.771C102.291 3.29435 103.052 4.05459 103.052 5.57505V30.1559H128.393ZM5.48816 50.6823V63.3528H18.1587V50.6823H5.48816ZM5.48816 81.345V94.0156H18.1587V81.345H5.48816ZM28.5486 121.891V34.7174H5.48816V46.1209H20.4394C21.9599 46.1209 22.7201 46.8811 22.7201 48.4016V65.6335C22.7201 67.154 21.9599 67.9142 20.4394 67.9142H5.48816V76.7836H20.4394C21.9599 76.7836 22.7201 77.5439 22.7201 79.0643V96.2963C22.7201 97.8168 21.9599 98.577 20.4394 98.577H5.48816V121.891H28.5486ZM75.4297 121.891V88.4405H56.1704V121.891H75.4297ZM98.4901 32.4367V7.85576H33.11V32.4367V121.891H51.609V86.1598C51.609 84.6394 52.3693 83.8791 53.8897 83.8791H77.7104C79.2309 83.8791 79.9911 84.6394 79.9911 86.1598V121.891H98.4901V32.4367ZM126.112 94.0156V81.345H113.441V94.0156H126.112ZM126.112 63.3528V50.6823H113.441V63.3528H126.112ZM126.112 46.1209V34.7174H103.052V121.891H126.112V98.577H111.161C109.64 98.577 108.88 97.8168 108.88 96.2963V79.0643C108.88 77.5439 109.64 76.7836 111.161 76.7836H126.112V67.9142H111.161C109.64 67.9142 108.88 67.154 108.88 65.6335V48.4016C108.88 46.8811 109.64 46.1209 111.161 46.1209H126.112Z" fill="#F0F4F7"/>
</g>
<defs>
<clipPath id="clip0_182_10877">
<rect width="130.2" height="130" fill="white" transform="matrix(1 0 0 -1 0.799805 130)"/>
</clipPath>
</defs>
</svg>
