<svg width="21" height="24" viewBox="0 0 21 24" fill="none" xmlns="http://www.w3.org/2000/svg">
<path id="Vector" d="M17.85 2.3853H15.75V1.19265C15.75 0.87634 15.6394 0.572985 15.4425 0.349319C15.2455 0.125654 14.9785 0 14.7 0C14.4215 0 14.1545 0.125654 13.9575 0.349319C13.7606 0.572985 13.65 0.87634 13.65 1.19265V2.3853H7.35V1.19265C7.35 0.87634 7.23937 0.572985 7.04246 0.349319C6.84555 0.125654 6.57848 0 6.3 0C6.02152 0 5.75445 0.125654 5.55754 0.349319C5.36062 0.572985 5.25 0.87634 5.25 1.19265V2.3853H3.15C2.31457 2.3853 1.51335 2.76226 0.922614 3.43326C0.331874 4.10426 0 5.01432 0 5.96325V20.2751C0 21.224 0.331874 22.1341 0.922614 22.8051C1.51335 23.4761 2.31457 23.853 3.15 23.853H17.85C18.6854 23.853 19.4866 23.4761 20.0774 22.8051C20.6681 22.1341 21 21.224 21 20.2751V5.96325C21 5.01432 20.6681 4.10426 20.0774 3.43326C19.4866 2.76226 18.6854 2.3853 17.85 2.3853ZM18.9 20.2751C18.9 20.5914 18.7894 20.8947 18.5925 21.1184C18.3955 21.3421 18.1285 21.4677 17.85 21.4677H3.15C2.87152 21.4677 2.60445 21.3421 2.40754 21.1184C2.21062 20.8947 2.1 20.5914 2.1 20.2751V11.9265H18.9V20.2751ZM18.9 9.54121H2.1V5.96325C2.1 5.64694 2.21062 5.34359 2.40754 5.11992C2.60445 4.89626 2.87152 4.7706 3.15 4.7706H5.25V5.96325C5.25 6.27957 5.36062 6.58292 5.55754 6.80659C5.75445 7.03025 6.02152 7.15591 6.3 7.15591C6.57848 7.15591 6.84555 7.03025 7.04246 6.80659C7.23937 6.58292 7.35 6.27957 7.35 5.96325V4.7706H13.65V5.96325C13.65 6.27957 13.7606 6.58292 13.9575 6.80659C14.1545 7.03025 14.4215 7.15591 14.7 7.15591C14.9785 7.15591 15.2455 7.03025 15.4425 6.80659C15.6394 6.58292 15.75 6.27957 15.75 5.96325V4.7706H17.85C18.1285 4.7706 18.3955 4.89626 18.5925 5.11992C18.7894 5.34359 18.9 5.64694 18.9 5.96325V9.54121Z" fill="#FCFCFC"/>
</svg>
