<svg width="33" height="34" viewBox="0 0 33 34" fill="none" xmlns="http://www.w3.org/2000/svg">
<path id="Vector (Stroke)" fill-rule="evenodd" clip-rule="evenodd" d="M9.51764 1.1335C11.2162 0.385165 13.0368 0 14.8753 0C16.7139 0 18.5344 0.385165 20.233 1.1335C21.9316 1.88184 23.475 2.9787 24.7751 4.36145C26.0751 5.74419 27.1064 7.38576 27.81 9.19241C28.5135 10.9991 28.8757 12.9354 28.8757 14.8909C28.8757 16.8464 28.5135 18.7828 27.81 20.5894C27.2342 22.0677 26.4391 23.4355 25.4569 24.6414L31.8324 31.4225C32.223 31.8379 32.223 32.5113 31.8324 32.9267C31.4419 33.342 30.8088 33.342 30.4182 32.9267L24.0427 26.1456C21.5062 28.4831 18.2537 29.7818 14.8753 29.7818C11.1622 29.7818 7.60118 28.213 4.9756 25.4204C2.35003 22.6278 0.875 18.8402 0.875 14.8909C0.875 10.9416 2.35003 7.15403 4.9756 4.36145C6.27565 2.9787 7.81904 1.88184 9.51764 1.1335ZM14.8753 2.12722C13.2994 2.12722 11.739 2.45736 10.283 3.0988C8.82706 3.74024 7.50415 4.6804 6.38982 5.86562C4.13932 8.25928 2.875 11.5058 2.875 14.8909C2.875 18.2761 4.13932 21.5225 6.38982 23.9162C8.64032 26.3099 11.6926 27.6546 14.8753 27.6546C18.058 27.6546 21.1104 26.3099 23.3609 23.9162C24.4752 22.731 25.3591 21.3239 25.9622 19.7754C26.5653 18.2268 26.8757 16.5671 26.8757 14.8909C26.8757 13.2148 26.5653 11.555 25.9622 10.0065C25.3591 8.4579 24.4752 7.05084 23.3609 5.86562C22.2465 4.6804 20.9236 3.74024 19.4677 3.0988C18.0117 2.45736 16.4512 2.12722 14.8753 2.12722Z" fill="#FCFCFC"/>
</svg>
