<svg width="273" height="77" viewBox="0 0 273 77" fill="none" xmlns="http://www.w3.org/2000/svg">
<g clip-path="url(#clip0_645_1389)">
<path d="M49.0342 77.0001C47.6478 76.5054 46.1875 76.2001 44.9378 75.3691C42.6234 73.8341 41.5502 71.5219 40.9524 68.9722C40.2578 66.038 40.2151 63.036 40.0643 60.0256C39.9219 57.1847 39.8109 54.3241 38.4046 51.7122C37.0695 49.2331 34.9146 48.1109 32.1932 47.8396C29.3949 47.5569 26.5852 47.636 23.7784 47.6417C23.3585 47.6505 22.9458 47.5332 22.5941 47.3053C22.4446 47.2252 22.3236 47.1014 22.2473 46.9506C22.1711 46.7999 22.1433 46.6295 22.1679 46.4626C22.1924 46.2956 22.2681 46.1403 22.3845 46.0175C22.501 45.8947 22.6527 45.8104 22.819 45.7761C23.1996 45.6961 23.5891 45.6657 23.9776 45.6856C26.5738 45.6856 29.1757 45.5867 31.7605 45.7647C34.1545 45.9315 35.6177 44.668 36.8475 42.9833C38.194 41.1374 38.7007 38.9863 38.8146 36.7277C38.9654 33.6975 38.6409 30.752 37.3058 27.9818C36.8854 27.0168 36.2657 26.1501 35.4868 25.4378C34.7663 24.7639 33.8149 24.387 32.8251 24.3834C29.9443 24.4032 27.0663 24.3834 24.1883 24.3834C23.3087 24.3834 22.392 24.4286 22.2326 23.2951C22.1131 22.4471 22.7849 22.0514 24.137 22.0514C27.5132 22.0514 30.8894 22.1192 34.2656 22.0344C38.1342 21.9355 41.2456 23.4336 43.7507 26.2321C46.0547 28.7237 47.3098 31.9971 47.2578 35.3794C47.181 40.4675 44.5279 44.0122 39.8821 46.1011C38.9683 46.511 37.9919 46.7824 36.95 47.1498C38.0516 47.4551 39.1135 47.7152 40.1525 48.0431C45.4103 49.725 48.4449 53.4337 48.6157 59.1917C48.6897 61.7216 48.6015 64.2572 48.6157 66.7899C48.6291 68.2211 48.8722 69.641 49.3359 70.9961C50.4034 74.0716 52.7377 75.1316 56.0683 74.1055C56.5323 73.9642 56.9793 73.7719 57.4461 73.6334C57.5539 73.5884 57.6699 73.5659 57.7869 73.5672C57.9038 73.5685 58.0193 73.5937 58.126 73.6411C58.2328 73.6885 58.3286 73.7572 58.4075 73.843C58.4864 73.9287 58.5468 74.0296 58.5848 74.1394C58.767 74.5747 58.5535 74.8913 58.1322 75.174C56.7088 76.1238 55.1004 76.4969 53.512 76.9803L49.0342 77.0001Z" fill="#F2D448"/>
<path d="M272.997 48.4755C269.274 48.3314 265.55 48.1561 261.824 48.4755C261.254 48.5264 261.015 48.3822 261.03 47.7491C261.044 47.1837 261.158 46.9802 261.784 46.9745C263.996 46.9519 264.272 46.4827 263.429 44.3683C262.997 43.2744 262.518 42.1945 262.151 41.0808C262.118 40.8775 262.005 40.6954 261.837 40.5743C261.669 40.4531 261.46 40.4025 261.254 40.4335C258.408 40.4505 255.561 40.4646 252.731 40.4335C252.211 40.4335 252.054 40.6766 251.92 41.0356C251.468 42.2313 251.021 43.4242 250.594 44.6284C250.024 46.2792 250.522 47.0056 252.302 46.9915C252.996 46.9915 253.548 46.9547 253.415 47.9384C253.349 48.4331 253.19 48.5038 252.76 48.4614C250.254 48.1872 247.725 48.1872 245.219 48.4614C244.843 48.501 244.533 48.4388 244.65 47.9893C244.741 47.6529 244.271 47.0056 245.017 47.0113C246.6 47.0113 247.311 46.0445 247.847 44.7867C249.25 41.4794 250.693 38.1834 252.068 34.8705C253.739 30.8876 255.45 26.9217 256.879 22.8456C257.113 22.1757 257.448 22.0372 258.1 22.0485C259.939 22.0739 259.934 22.0485 260.662 23.7021C263.725 30.7689 266.808 37.8357 269.849 44.9308C270.463 46.3668 271.471 47.0396 273.014 46.9943L272.997 48.4755ZM256.973 28.5415C255.678 31.7696 254.479 34.7603 253.272 37.7538C253.036 38.3389 253.5 38.206 253.768 38.2089C255.928 38.2089 258.089 38.2089 260.25 38.2089C260.91 38.2089 260.941 37.9997 260.705 37.4654C260.215 36.3658 259.791 35.2351 259.324 34.1214C258.584 32.3378 257.821 30.5484 256.973 28.5415Z" fill="#F2D448"/>
<path d="M272.997 71.5076C271.744 74.0178 268.089 74.8997 265.741 73.2348C264.961 72.6835 264.389 70.8207 264.676 69.8823C264.764 69.5996 264.941 69.5996 265.149 69.5996C265.573 69.6236 265.999 69.6236 266.424 69.5996C267.119 69.5176 267.486 69.7042 267.437 70.473C267.389 71.2419 267.694 71.7931 268.491 71.9232C269.18 72.0362 269.863 71.9486 270.182 71.1995C270.523 70.3967 270.506 69.5855 269.732 69.0456C268.813 68.4153 267.863 67.8313 266.885 67.2958C264.761 66.1086 264.559 64.6585 265.129 62.2897C265.208 61.9637 265.362 61.6601 265.578 61.4024C265.794 61.1446 266.067 60.9395 266.376 60.8028C267.153 60.4357 268.001 60.2372 268.862 60.2206C269.723 60.204 270.577 60.3698 271.369 60.7067C272.271 61.0714 272.684 61.8063 272.792 62.7363C272.826 62.9907 272.664 63.3016 273 63.4826V64.5398C272.331 64.5398 271.656 64.5058 270.987 64.5398C270.418 64.5793 270.176 64.4323 270.21 63.8076C270.253 63.0699 270.039 62.3943 269.18 62.2218C268.656 62.1201 268.098 62.1936 267.807 62.7222C267.454 63.3638 267.343 64.0281 267.893 64.65C268.442 65.2719 269.177 65.5969 269.857 66.021C271.053 66.7616 272.365 67.3778 272.988 68.7544L272.997 71.5076Z" fill="#F2D448"/>
<path d="M185.524 0V10.538C184.454 7.0131 182.481 4.60191 179.216 3.45143C174.715 1.86281 170.391 2.21333 166.648 5.30011C164.274 7.25903 163.702 9.97551 165.361 13.328C166.5 15.612 168.313 17.308 170.312 18.8514C174.212 21.8619 178.203 24.7678 181.849 28.0835C183.962 30 186.071 32.072 186.572 34.9779C187.671 41.3663 185.963 46.0643 179.854 49.5016C177.576 50.7849 175.063 51.5284 172.558 52.252C172.174 52.3341 171.777 52.3341 171.393 52.252C171.148 52.2234 170.919 52.1164 170.74 51.9471C170.562 51.7779 170.443 51.5555 170.403 51.3135C170.263 50.6662 170.798 50.5221 171.203 50.409C173.38 49.8125 175.473 48.9956 177.243 47.6021C180.045 45.3774 181.849 42.6044 181.488 38.8533C181.291 36.787 180.164 35.156 178.815 33.6691C175.453 29.9689 171.271 27.2666 167.234 24.3862C164.08 22.1248 161.328 19.5807 159.918 15.8297C157.832 10.278 161.16 1.54622 168.854 0.460755C171.655 0.0940673 174.486 0.013556 177.303 0.220484C180.016 0.401395 182.749 0.449449 185.524 0Z" fill="#F2D448"/>
<path d="M228.788 30.0113C226.32 36.0153 223.431 41.6009 221.316 47.5371C221.196 47.8706 221.225 48.4699 220.638 48.4727C219.861 48.4727 219.078 48.5942 218.315 48.3794C218.23 48.3568 218.213 48.0798 218.176 47.9158C216.468 40.6417 214.76 33.3686 213.052 26.0963C212.767 24.8526 212.511 23.5721 210.715 23.7417C210.091 23.7982 210.288 23.2413 210.242 22.8937C210.191 22.4668 210.316 22.2718 210.811 22.2746C214.152 22.2953 217.493 22.2953 220.835 22.2746C221.35 22.2746 221.424 22.5007 221.384 22.9078C221.35 23.2668 221.504 23.654 220.894 23.7558C218.415 24.2109 218.463 24.2194 218.976 26.5656C219.966 31.0883 220.903 35.6111 221.913 40.3939C222.648 38.6979 223.303 37.2336 223.929 35.7524C225.719 31.5123 227.544 27.2864 229.255 23.0152C229.693 21.9213 230.431 22.04 231.248 22.0711C231.789 22.0909 231.669 22.6025 231.763 22.8597C233.818 28.5132 236.229 34.0253 238.427 39.6194C238.513 39.7986 238.608 39.9732 238.712 40.1423C239.5 37.1601 240.252 34.3532 240.989 31.5406C241.524 29.4677 242.039 27.3881 242.532 25.302C242.777 24.2703 242.398 23.8152 241.319 23.7586C240.965 23.7388 240.609 23.7388 240.255 23.7586C239.637 23.7954 239.503 23.5014 239.486 22.9332C239.466 22.3198 239.734 22.2633 240.235 22.2661C242.543 22.2859 244.855 22.2661 247.164 22.2661C247.534 22.2661 247.912 22.2237 247.824 22.7778C247.767 23.1452 248.043 23.7869 247.349 23.7219C245.735 23.5664 245.404 24.7452 245.071 25.825C244.166 28.8354 243.332 31.8685 242.486 34.8959C241.291 39.1897 239.862 43.4213 239.036 47.8112C238.954 48.2353 238.752 48.4868 238.182 48.4925C236.101 48.5151 236.153 48.5321 235.299 46.33C233.591 41.9175 231.817 37.5248 230.064 33.1264C229.688 32.154 229.264 31.1731 228.788 30.0113Z" fill="#F2D448"/>
<path d="M125.644 22.2745C127.42 22.2745 129.197 22.2745 130.973 22.2745C131.426 22.2745 131.747 22.3084 131.682 22.8794C131.634 23.3006 131.827 23.7105 131.056 23.7924C128.368 24.0751 128.374 24.1232 128.374 26.8029V44.0261C128.374 44.3427 128.374 44.6622 128.374 44.9759C128.502 46.4543 128.858 46.7765 130.367 46.7963C131.064 46.7963 131.736 46.7624 131.682 47.8083C131.654 48.3736 131.483 48.5319 130.939 48.498C129.483 48.4038 128.029 48.3331 126.575 48.286C124.514 48.2153 122.456 48.3878 120.401 48.4811C120.062 48.498 119.547 48.6818 119.609 47.9977C119.643 47.4974 119.447 46.9094 120.261 46.8189C121.075 46.7285 121.949 47.0564 122.538 46.296C123.082 45.6035 122.86 44.7243 122.889 43.947C122.985 41.4029 122.946 38.8787 122.974 36.3459C122.974 35.9219 122.806 35.806 122.405 35.8088C118.78 35.8088 115.155 35.8088 111.53 35.8088C111.063 35.8088 110.913 35.97 110.921 36.4194C110.981 39.4779 110.793 42.5421 111.083 45.5978C111.192 46.7285 112.06 46.7992 112.959 46.8076C113.606 46.8076 114.346 46.6748 114.3 47.7659C114.275 48.3821 114.095 48.5404 113.512 48.5008C112.06 48.4047 110.605 48.3369 109.148 48.2888C107.124 48.2238 105.102 48.3708 103.081 48.4867C102.686 48.5093 102.207 48.6507 102.227 47.9214C102.25 47.356 102.244 46.9094 102.982 46.7907C105.521 46.4062 105.518 46.3893 105.518 43.7887V26.5739C105.518 24.191 105.455 24.0723 103.13 23.8066C102.41 23.7246 102.19 23.555 102.222 22.8257C102.256 21.9777 102.822 22.2886 103.198 22.2858C106.614 22.266 110.03 22.2717 113.446 22.2858C113.828 22.2858 114.334 22.0936 114.3 22.8511C114.272 23.4165 114.36 23.897 113.512 23.8066C113.068 23.7585 112.606 23.9536 112.148 23.979C111.442 24.0158 111.152 24.4285 111.092 25.0475C110.841 27.6792 110.981 30.3194 110.93 32.9623C110.93 33.6238 111.371 33.6068 111.784 33.6181C112.848 33.6492 113.916 33.6408 114.98 33.6408C117.258 33.6408 119.535 33.6238 121.813 33.6408C122.667 33.6408 123.068 33.4457 123.025 32.4535C122.926 30.0649 123.051 27.6707 122.854 25.2793C122.786 24.4511 122.513 23.9734 121.599 23.9762C121.218 23.9762 120.825 23.7698 120.46 23.8066C119.692 23.8829 119.646 23.5013 119.626 22.8879C119.601 22.0738 120.142 22.3028 120.546 22.2999C122.242 22.2604 123.936 22.2745 125.644 22.2745Z" fill="#F2D448"/>
<path d="M90.8803 33.8247C92.6595 34.0593 94.3191 34.1921 95.8449 34.9553C98.1678 36.1313 98.8596 38.5764 98.6546 40.6088C98.1536 45.5867 93.9177 47.8254 90.143 48.3031C86.69 48.7413 83.2626 47.9244 79.8266 48.3484C79.3687 48.4091 78.9078 48.4459 78.446 48.4586C78.2097 48.4586 77.8169 48.648 77.8083 48.1759C77.8083 47.8933 77.666 47.5399 78.1129 47.3873C79.7071 46.8474 79.7839 45.6008 79.7697 44.1733C79.7185 38.1185 79.7498 32.0608 79.7469 26.0059C79.7469 24.211 79.3399 23.7926 77.5009 23.7728C76.9088 23.7728 76.5159 23.7502 76.5103 22.9502C76.5103 22.1022 77.0141 22.286 77.4753 22.286C82.3146 22.286 87.154 22.2209 91.9934 22.3142C93.986 22.3538 95.8791 22.8796 97.0804 24.7424C98.165 26.4186 97.9344 30.1951 95.7823 31.5265C95.0293 32.037 94.2341 32.4833 93.4053 32.8607C92.5969 33.1632 91.7941 33.4685 90.8803 33.8247ZM85.278 40.5523C85.278 42.1691 85.278 43.7832 85.278 45.4001C85.278 45.7139 85.1585 46.0333 85.6709 46.2198C87.285 46.8106 90.6013 45.9372 91.6945 44.6001C92.8616 43.1868 92.7705 41.4907 92.7563 39.8314C92.7363 37.3552 91.3899 35.6507 88.9588 35.2097C87.992 35.0087 87.0059 34.9139 86.0182 34.9271C85.4147 34.9497 85.2467 35.1108 85.261 35.7016C85.3037 37.3213 85.278 38.9382 85.278 40.5523ZM85.278 28.615C85.278 29.8814 85.278 31.1591 85.278 32.4113C85.278 32.6544 85.1386 33.0501 85.5997 33.0388C87.4159 32.9936 89.2748 33.0614 90.7636 31.747C92.13 30.5428 91.9677 28.9344 91.9023 27.3571C91.8396 25.8222 91.034 24.813 89.5851 24.3919C88.3695 24.0357 87.1284 24.2279 85.9015 24.1799C85.3663 24.1601 85.2638 24.4625 85.2695 24.9261C85.2894 26.1557 85.278 27.3854 85.278 28.615Z" fill="#F2D448"/>
<path d="M137.543 34.5199C137.543 32.1963 137.509 29.8728 137.56 27.5492C137.58 26.6249 137.364 25.7373 137.324 24.8271C137.304 24.3833 137.039 24.1063 136.561 23.9338C135.983 23.7638 135.377 23.7043 134.776 23.7586C134.147 23.7586 134.141 23.3996 134.127 22.9332C134.113 22.4668 134.21 22.2576 134.759 22.2604C138.386 22.2858 142.01 22.2774 145.636 22.2604C146.052 22.2604 146.322 22.3141 146.274 22.8257C146.237 23.2413 146.359 23.7162 145.705 23.7331H145.599C143.237 23.6201 142.926 24.0158 142.901 26.7351C142.864 30.6049 142.901 34.4803 142.901 38.3501C142.925 39.6441 143.098 40.931 143.416 42.186C143.817 43.9018 145.033 44.9562 146.684 45.4113C148.805 46.0019 151.05 45.9823 153.16 45.3548C155.378 44.7074 156.357 43.0594 156.77 40.9309C157.097 39.2519 156.955 37.5671 156.969 35.8852C156.995 32.5779 156.969 29.2679 156.969 25.9578C156.969 24.0554 156.684 23.7784 154.783 23.7331C154.45 23.7331 154.045 23.8745 153.812 23.5013C153.732 23.3763 153.688 23.232 153.685 23.0839C153.682 22.9359 153.72 22.7899 153.795 22.6619C153.87 22.5338 153.979 22.4287 154.11 22.3579C154.241 22.2871 154.389 22.2534 154.538 22.2604C157.026 22.2604 159.514 22.2604 162.002 22.2604C162.398 22.2604 162.793 22.1813 162.742 22.8257C162.702 23.295 162.793 23.7812 162.079 23.7444C161.902 23.7444 161.723 23.7444 161.547 23.7444C159.784 23.7699 159.32 24.2391 159.318 26.0313C159.318 30.571 159.394 35.1163 159.286 39.6532C159.221 42.48 158.483 45.0975 156.058 46.9434C154.555 48.0503 152.76 48.6985 150.891 48.809C147.723 49.0662 144.54 49.0747 141.574 47.6218C138.924 46.3215 137.435 44.3202 137.535 41.2673C137.6 39.0285 137.543 36.7728 137.543 34.5199Z" fill="#F2D448"/>
<path d="M207.597 41.9939C207.498 43.7267 207.358 45.4567 207.313 47.1895C207.296 47.9923 207.057 48.2551 206.217 48.3202C202.675 48.5562 199.121 48.5562 195.579 48.3202C193.378 48.2052 191.171 48.2515 188.977 48.4587C188.693 48.4841 188.229 48.7413 188.103 48.2071C188.069 48.109 188.056 48.0051 188.064 47.9017C188.073 47.7983 188.102 47.6977 188.151 47.6062C188.2 47.5147 188.268 47.4342 188.35 47.3698C188.432 47.3054 188.526 47.2585 188.627 47.2319C189.766 46.8277 190.05 45.9881 190.05 44.8433C190.008 38.5453 190.031 32.2446 190.031 25.9438C190.031 24.1912 189.635 23.8011 187.853 23.7644C187.338 23.7644 186.777 23.8973 186.805 23.0181C186.825 22.4132 186.993 22.2662 187.585 22.2719C191.001 22.2973 194.417 22.2719 197.833 22.2719C200.64 22.2719 203.447 22.2888 206.254 22.2719C206.926 22.2719 207.19 22.4076 207.136 23.1595C207.034 24.5926 206.852 26.0116 206.715 27.442C206.644 28.2617 206.126 27.9225 205.747 27.9875C205.238 28.078 205.201 27.7868 205.178 27.377C205.038 24.7057 204.705 24.4004 202.009 24.4004C200.341 24.4004 198.671 24.4004 196.999 24.4004C196.06 24.4004 195.482 24.5813 195.55 25.8138C195.681 28.2335 195.613 30.6673 195.573 33.0954C195.573 33.7625 195.772 33.9434 196.427 33.9152C197.956 33.8728 199.484 33.9152 201.01 33.8982C202.673 33.8982 203.088 33.5279 203.04 31.8714C203.014 31.0234 203.325 30.9358 204.056 30.916C205.018 30.8906 204.768 31.4814 204.711 31.9506C204.455 34.0254 204.58 36.0917 204.745 38.1694C204.785 38.6782 204.944 39.2266 204.022 39.1814C203.336 39.1474 203.088 39.0598 203.034 38.2796C202.886 36.2161 202.772 35.7356 200.472 35.8034C199.123 35.843 197.773 35.843 196.421 35.8034C195.812 35.7865 195.567 35.8854 195.567 36.5864C195.616 39.5093 195.607 42.4293 195.567 45.3493C195.567 45.9627 195.667 46.1973 196.364 46.1832C198.497 46.1323 200.634 46.1832 202.761 46.1521C203.389 46.1011 204.012 45.9971 204.623 45.8411C204.833 45.8244 205.03 45.7308 205.175 45.5783C205.32 45.4259 205.403 45.2254 205.408 45.0157C205.479 44.4504 205.693 43.885 205.815 43.3197C206.129 41.8554 206.126 41.8554 207.597 41.9939Z" fill="#F2D448"/>
<path d="M8.74488 34.4522C8.74488 37.197 8.73065 39.9417 8.74488 42.6893C8.74488 43.6334 8.85021 44.5804 8.92708 45.516C8.98686 46.2453 9.49641 46.5111 10.1511 46.5591C10.6806 46.5959 11.213 46.6439 11.7368 46.6722C12.5509 46.7146 12.5908 47.1188 12.5623 47.7463C12.5367 48.5944 11.9161 48.2438 11.566 48.2382C9.82663 48.2156 8.09015 48.0771 6.35083 48.0799C4.54318 48.0799 2.73554 48.2099 0.927896 48.241C0.591987 48.241 0.0340312 48.5406 -0.00297576 47.7746C-0.0342893 47.1386 0.0311803 46.6665 0.811172 46.6439C0.953506 46.6439 1.09585 46.5591 1.22964 46.5789C2.99174 46.8305 3.35612 45.9005 3.36466 44.244C3.39313 38.1892 3.39313 32.1353 3.36466 26.0823C3.36466 23.9312 3.00313 23.5835 0.8368 23.558C0.182062 23.558 0.00272109 23.3573 -0.0172057 22.71C-0.0399792 21.9609 0.392722 22.0542 0.859578 22.0542C5.79573 22.0542 10.7347 21.9101 15.6623 22.1051C19.0214 22.2351 21.0369 23.5467 21.4468 26.4865C22.0503 30.8001 19.9409 34.2289 15.5029 35.5745C14.128 35.99 12.7189 35.9193 11.3126 35.7893C10.4586 35.7101 10.2081 35.0176 10.0544 34.4155C9.9405 33.9717 10.4387 33.8501 10.8714 33.9547C14.1536 34.8225 15.9356 32.2587 15.9584 29.6468C15.9584 28.0271 15.9271 26.478 14.7315 25.1382C13.5359 23.7983 10.5041 23.7983 9.16621 24.1375C8.55986 24.2902 8.73635 24.7029 8.73635 25.0449C8.7392 28.1967 8.74488 31.3061 8.74488 34.4522Z" fill="#F2D448"/>
<path d="M68.0047 48.2437C66.2654 48.3229 64.5261 48.3794 62.7896 48.4868C62.1719 48.5264 62.0267 48.3144 62.021 47.7264C62.0153 47.1385 62.2174 46.918 62.8067 46.9887C63.1247 47.0212 63.4452 47.0212 63.7631 46.9887C64.6172 46.9123 65.0612 46.4233 64.8819 45.5753C64.5261 43.8793 63.6407 42.35 63.0913 40.7105C62.9661 40.3317 62.633 40.4448 62.3711 40.4448C59.5244 40.4448 56.6777 40.4448 53.8311 40.4448C53.6427 40.4137 53.4496 40.4582 53.2943 40.5685C53.139 40.6787 53.0341 40.8457 53.0027 41.0328C52.57 42.3415 52.0263 43.6136 51.5793 44.9167C51.1324 46.2198 51.5793 46.9152 52.9856 46.9915C53.3047 47.0197 53.6258 47.0197 53.9449 46.9915C54.7335 46.9039 54.5143 47.4551 54.5712 47.8791C54.6338 48.4444 54.3492 48.5179 53.8766 48.4642C51.3673 48.1971 48.8365 48.1971 46.3272 48.4642C45.96 48.5038 45.5529 48.549 45.6554 47.9837C45.7237 47.619 45.3195 46.966 46.1735 47.0084C47.4203 47.0706 48.1861 46.3413 48.6387 45.3492C49.7432 42.9267 50.7823 40.4731 51.7985 38.0138C53.9165 32.9031 56.2194 27.8659 58.01 22.6251C58.1409 22.2379 58.3829 22.0598 58.864 22.0598C60.9705 22.0202 60.9791 21.9891 61.8303 23.9452C64.862 30.93 67.9051 37.9121 70.9083 44.911C71.4407 46.1576 72.2377 46.9519 73.6241 47C74.387 47.0254 74.0795 47.537 74.1365 47.8932C74.2133 48.3511 74.0112 48.5066 73.5444 48.5038C71.6997 48.484 69.8437 48.5038 68.0076 48.5038L68.0047 48.2437ZM62.0494 38.1382C60.7286 34.9553 59.4248 31.8233 58.047 28.5104C56.729 31.8176 55.485 34.9609 54.1812 38.2145H61.5826C61.7399 38.2004 61.8959 38.1748 62.0494 38.1382Z" fill="#F2D448"/>
<path d="M155.899 69.5515C155.937 68.7697 155.932 67.9864 155.882 67.2053C155.771 66.2301 156.411 66.4223 156.944 66.4364C157.476 66.4505 158.119 66.1537 158.045 67.1629C157.96 68.2936 157.897 69.4582 157.445 70.521C157.16 71.1825 157.16 71.6517 157.729 72.1888C158.176 72.6072 158.475 73.181 158.945 73.8311C158.054 73.8311 157.297 73.8311 156.539 73.8311C156.408 73.8311 156.195 73.8057 156.161 73.7294C155.674 72.6156 155.085 73.3138 154.453 73.5767C152.042 74.5915 148.819 73.9555 148.105 71.1175C147.652 69.3197 148.31 67.7848 150.325 66.3544C149.898 65.5743 149.277 64.9411 149.041 64.0139C148.56 62.1285 149.648 60.4438 151.58 60.3166C152.355 60.2657 153.152 60.1667 153.898 60.4155C155.737 61.0261 156.314 63.3468 155.036 64.8704C154.854 65.0852 154.646 65.2775 154.441 65.4753C153.357 66.5212 153.351 66.5269 154.228 67.7367C154.692 68.3699 155.187 68.9833 155.668 69.608L155.899 69.5515ZM150.354 69.9529C150.354 71.8496 152.138 72.8503 153.869 71.9316C154.345 71.6828 154.501 71.516 154.08 71.0468C153.431 70.3203 152.847 69.5317 152.249 68.7628C151.999 68.4377 151.808 67.8809 151.395 67.9487C150.914 68.0279 150.701 68.5706 150.482 69.02C150.375 69.3189 150.331 69.6365 150.354 69.9529ZM153.337 63.1546C153.382 62.4536 153.149 62.0069 152.349 61.99C151.549 61.973 151.273 62.3942 151.21 63.0585C151.156 63.6606 151.999 65.0768 152.289 64.9213C152.972 64.5566 153.405 63.9828 153.337 63.1546Z" fill="#F2D448"/>
<path d="M197.221 67.2337C199.075 67.7228 199.117 69.1672 199.18 70.5806C199.22 71.4286 199.18 72.2766 199.208 73.1246C199.228 73.6221 199.16 73.8794 198.542 73.8568C196.33 73.7776 196.416 74.2468 196.422 71.7819C196.422 71.2166 196.393 70.6512 196.422 70.0859C196.443 69.6666 196.324 69.252 196.083 68.9072C195.624 68.1863 194.844 68.2655 194.167 68.3701C193.532 68.469 193.882 69.0655 193.882 69.416C193.831 70.6456 193.842 71.8809 193.882 73.1105C193.882 73.6193 193.814 73.8398 193.208 73.8539C191.135 73.8991 191.135 73.9274 191.135 71.8441C191.135 68.4323 191.192 65.0176 191.104 61.6057C191.073 60.475 191.437 60.2235 192.465 60.3224C193.623 60.4355 194.793 60.3789 195.966 60.4722C198.315 60.6588 199.075 61.8177 199.097 63.9717C199.089 65.2861 198.952 66.6797 197.221 67.2337ZM194.708 62.4283C194.01 62.2417 193.8 62.5809 193.854 63.3102C193.911 64.113 193.854 64.9215 193.871 65.7271C193.871 65.9787 193.757 66.3801 194.212 66.3348C194.862 66.2698 195.667 66.4564 196.063 65.8062C196.301 65.4008 196.436 64.9435 196.455 64.4744C196.475 64.0053 196.378 63.5386 196.174 63.1152C195.915 62.4933 195.388 62.4 194.708 62.4255V62.4283Z" fill="#F2D448"/>
<path d="M128.687 67.2732C130.805 67.6689 130.765 69.1388 130.762 70.6116C130.762 71.4822 130.64 72.3613 130.919 73.2263C131.056 73.6446 130.876 73.8171 130.387 73.8482C128.158 73.9867 128.172 74.0064 128.149 71.7507C128.149 70.9168 128.294 70.0547 127.961 69.2491C127.781 68.864 127.463 68.5589 127.069 68.3924C126.676 68.226 126.234 68.2099 125.829 68.3473C125.448 68.5141 125.621 68.8307 125.618 69.0738C125.599 70.4476 125.587 71.8186 125.618 73.1895C125.618 73.6927 125.476 73.8284 124.964 73.8453C122.832 73.9216 122.832 73.9414 122.832 71.8157C122.832 68.2993 122.851 64.78 122.814 61.2636C122.814 60.5484 122.96 60.2799 123.737 60.3195C125.22 60.3873 126.714 60.2799 128.192 60.5173C129.35 60.7067 130.298 61.2099 130.543 62.4225C131.01 64.732 130.851 66.5693 128.687 67.2732ZM125.61 64.3588C125.631 64.7439 125.631 65.1299 125.61 65.515C125.527 66.216 125.775 66.4817 126.495 66.3121C127.065 66.1764 127.753 66.2612 127.938 65.5037C128.172 64.5482 128.311 63.5758 127.591 62.7476C127.133 62.2218 126.453 62.3519 125.9 62.4649C125.348 62.578 125.707 63.1631 125.63 63.5278C125.595 63.8034 125.588 64.0819 125.61 64.3588Z" fill="#F2D448"/>
<path d="M98.6776 66.5637C98.7594 68.0353 98.707 69.5112 98.521 70.9734C98.2193 73.2348 96.6849 74.1337 94.0375 74.0093C91.5296 73.8906 90.556 72.7231 90.3966 70.2413C90.2415 67.9278 90.2415 65.6067 90.3966 63.2932C90.5105 61.6678 91.6435 60.4297 93.3173 60.3167C94.0945 60.2629 94.8744 60.2629 95.6516 60.3167C97.4023 60.4354 98.521 61.6876 98.6634 63.7087C98.7317 64.6613 98.6776 65.6139 98.6776 66.5637ZM95.9903 67.0754C95.8167 65.8486 96.1697 64.5313 95.7655 63.2649C95.5434 62.5639 95.0993 62.2049 94.3848 62.2219C93.6703 62.2388 93.3344 62.6459 93.175 63.3102C92.785 64.9412 93.0355 66.5892 92.9871 68.2287C92.9643 69.0936 92.8988 69.9671 93.1664 70.8321C93.3771 71.5133 93.6959 71.9232 94.4645 71.9345C95.2331 71.9458 95.5861 71.6207 95.7825 70.8971C96.127 69.6448 95.8423 68.3841 95.9903 67.0754Z" fill="#F2D448"/>
<path d="M109.398 65.8373C109.398 67.3496 109.398 68.8619 109.398 70.3601C109.398 71.4512 109.817 71.9119 110.765 71.9148C111.713 71.9176 112.157 71.4399 112.162 70.3742C112.162 67.3835 112.202 64.3929 112.145 61.405C112.145 60.5372 112.345 60.2743 113.244 60.2998C114.935 60.3732 114.952 60.3167 114.952 61.9506C114.952 64.4126 114.975 66.8747 114.952 69.3368C114.936 70.103 114.841 70.8655 114.668 71.6123C114.184 73.7521 112.012 74.2186 110.096 73.9585C107.594 73.6221 106.771 72.8561 106.663 69.8541C106.56 66.9736 106.663 64.0876 106.628 61.2015C106.628 60.5457 106.745 60.2913 107.483 60.3026C109.413 60.3308 109.413 60.3026 109.413 62.2332L109.398 65.8373Z" fill="#F2D448"/>
<path d="M211.027 60.3902C212.377 59.9832 212.718 60.6983 212.96 61.8658C213.746 65.6903 214.648 69.4979 215.505 73.2999C215.537 73.4327 215.608 73.673 215.579 73.6843C214.879 73.9896 214.133 73.7635 213.41 73.8285C212.997 73.8681 212.841 73.6645 212.841 73.2631C212.849 73.1223 212.841 72.9811 212.818 72.842C212.422 70.8378 212.419 70.8633 210.333 70.8633C209.692 70.8633 209.339 70.9565 209.399 71.7113C209.428 72.0731 209.214 72.4377 209.2 72.842C209.169 73.5345 208.915 73.9218 208.033 73.8765C206.325 73.7889 206.325 73.8511 206.669 72.2257C207.443 68.7178 208.28 65.2211 208.992 61.699C209.251 60.4213 209.869 60.068 211.027 60.3902ZM211.09 63.3583L210.919 63.2707C210.578 65.1222 210.233 66.9765 209.872 68.9241C210.233 68.9056 210.595 68.9056 210.956 68.9241C211.955 69.0344 212.126 68.7263 211.859 67.7397C211.472 66.3235 211.329 64.8254 211.09 63.3583Z" fill="#F2D448"/>
<path d="M221.008 60.3817C224.498 60.3337 223.516 59.8164 224.14 62.9088C224.655 65.4246 225.056 67.963 225.563 70.7869C225.979 68.4605 226.352 66.3998 226.702 64.3363C226.875 63.3413 227.015 62.3407 227.174 61.3456C227.291 60.6333 227.541 60.2347 228.45 60.3054C229.953 60.4241 229.987 60.3422 229.691 61.7979C228.913 65.5933 228.118 69.3858 227.308 73.1755C227.22 73.5967 227.023 73.8454 226.454 73.8539C224.003 73.8935 223.952 73.9359 223.428 71.6265C222.585 67.8895 221.811 64.1384 221.008 60.3817Z" fill="#F2D448"/>
<path d="M240.776 73.8313C239.887 73.8313 238.996 73.8086 238.111 73.8313C237.602 73.8482 237.357 73.7691 237.362 73.1642C237.391 69.1163 237.391 65.0646 237.362 61.0092C237.362 60.4439 237.53 60.2912 238.088 60.3025C239.828 60.3365 241.57 60.3478 243.312 60.3025C244.365 60.2743 243.935 61.0092 243.978 61.4672C244.021 61.9251 244.2 62.4904 243.329 62.4169C242.552 62.3491 241.766 62.4367 240.986 62.3915C240.383 62.3576 240.132 62.4622 240.132 63.1689C240.132 65.9023 240.09 65.9023 242.859 65.908C243.89 65.908 244.382 66.6881 243.998 67.6577C243.913 67.8725 243.773 67.8923 243.594 67.8951C243.414 67.898 243.167 67.8951 242.956 67.8951C242.045 67.9573 240.639 67.4994 240.337 68.0676C239.882 68.9156 240.195 70.1791 240.158 71.2618C240.141 71.7819 240.497 71.6914 240.804 71.6943C241.726 71.6943 242.654 71.7338 243.574 71.6943C244.567 71.6406 244.186 72.3501 244.194 72.7712C244.203 73.1924 244.539 73.9019 243.557 73.8313C242.626 73.786 241.698 73.8313 240.776 73.8313Z" fill="#F2D448"/>
<path d="M78.4688 68.0703C78.4688 66.4195 78.4461 64.7687 78.4688 63.1179C78.4688 62.5695 78.3293 62.349 77.7628 62.414C77.4127 62.4564 77.0455 62.3716 76.701 62.431C75.6734 62.6091 75.3545 62.2275 75.44 61.2042C75.494 60.5399 75.6079 60.3053 76.3281 60.3194C78.6055 60.3675 80.8828 60.3901 83.1345 60.3194C84.1138 60.2855 84.017 60.8085 84.0085 61.419C84.0085 61.9702 84.148 62.479 83.2085 62.4593C81.1817 62.4084 81.1817 62.4593 81.1817 64.438C81.1817 67.2845 81.1589 70.131 81.1988 72.9747C81.1988 73.6701 81.0109 73.8594 80.3106 73.851C78.4574 73.8255 78.4574 73.851 78.4574 72.0758L78.4688 68.0703Z" fill="#F2D448"/>
<path d="M178.291 68.0704C178.291 66.4196 178.271 64.7688 178.291 63.118C178.291 62.5725 178.151 62.3491 177.585 62.4142C177.235 62.4566 176.867 62.3718 176.523 62.4311C175.495 62.6092 175.176 62.2276 175.259 61.2043C175.313 60.5344 175.441 60.3054 176.153 60.3196C178.459 60.362 180.764 60.3789 183.067 60.3196C184.172 60.2885 183.756 61.0178 183.822 61.5181C183.902 62.1004 183.842 62.465 183.03 62.4509C181.004 62.4142 181.001 62.465 181.001 64.4296C181.001 67.2761 180.978 70.1226 181.001 72.9663C181.001 73.6617 180.821 73.8539 180.118 73.8454C178.265 73.82 178.262 73.8454 178.262 72.0703L178.291 68.0704Z" fill="#F2D448"/>
<path d="M251.889 67.0726C251.889 65.1391 251.92 63.2056 251.889 61.2721C251.869 60.5598 252.031 60.2997 252.808 60.3167C254.667 60.3534 254.67 60.3167 254.67 62.1173C254.67 65.0345 254.693 67.9545 254.653 70.8802C254.653 71.5755 254.838 71.8102 255.533 71.7282C256.059 71.6716 256.603 71.7678 257.127 71.7056C257.952 71.6066 258.171 71.8921 258.194 72.7232C258.22 73.6617 257.949 73.9076 257.024 73.8539C255.572 73.7691 254.112 73.803 252.657 73.8539C252.057 73.8708 251.88 73.6928 251.892 73.0935C251.912 71.0837 251.889 69.0767 251.889 67.0726Z" fill="#F2D448"/>
</g>
<defs>
<clipPath id="clip0_645_1389">
<rect width="273" height="77" fill="white"/>
</clipPath>
</defs>
</svg>
