<svg width="99" height="17" viewBox="0 0 99 17" fill="none" xmlns="http://www.w3.org/2000/svg">
<g clip-path="url(#clip0_645_1464)">
<path d="M37.8374 8.01972C38.1009 8.38311 38.4716 8.52442 38.7772 8.76836C40.9766 10.523 40.6045 15.2083 37.8012 16.3994C36.9756 16.7641 36.1012 16.9571 35.218 16.9697C33.6643 16.9798 32.1106 16.9697 30.557 16.9798C30.2355 16.9798 30.1226 16.8957 30.1226 16.492C30.1341 11.1803 30.1341 5.86858 30.1226 0.556883C30.1226 0.169946 30.1819 0.00507747 30.557 0.0134892C31.9847 0.0420889 33.4124 -0.00165217 34.8386 0.0420885C35.997 0.0790999 37.1424 0.328084 38.1198 1.11542C39.8979 2.54708 39.9804 5.85288 38.3037 7.57895C38.1618 7.72868 38.0039 7.86495 37.8374 8.01972ZM33.0301 12.0859V12.4628C33.0301 13.8827 33.0301 13.8843 34.2739 13.8827C34.94 13.8827 35.6046 13.9247 36.2446 13.6185C36.8238 13.346 37.1699 12.8295 37.1902 12.0893C37.209 11.3793 36.973 10.8477 36.3836 10.5483C35.37 10.0301 34.2913 10.2404 33.2386 10.195C33.0316 10.1866 33.0359 10.4524 33.0344 10.6391C33.0272 11.1219 33.0301 11.6031 33.0301 12.0859ZM33.0301 5.11265C33.0301 5.59379 33.0301 6.07662 33.0301 6.55945C33.0301 6.87069 33.1315 7.02546 33.4109 7.02041C33.9351 7.012 34.4607 7.05574 34.9805 7.00359C35.8291 6.91779 36.3721 6.24486 36.4618 5.25228C36.5516 4.2597 36.2432 3.73818 35.3773 3.36806C35.1354 3.28026 34.8805 3.25162 34.6287 3.28395C34.1132 3.31591 33.45 3.01309 33.1213 3.41181C32.8274 3.78192 33.0518 4.53056 33.0359 5.11265H33.0301Z" fill="white"/>
<path d="M41.305 8.5126C41.305 5.88816 41.3181 3.26203 41.2949 0.63759C41.2949 0.132889 41.4209 0.00166707 41.8452 0.0117611C43.2005 0.0437255 44.5558 -0.00674471 45.9111 0.0353137C47.485 0.0841014 48.9967 0.42057 50.1855 1.76139C51.3743 3.10221 51.7074 4.78959 51.4887 6.65194C51.2947 8.31745 50.7068 9.73903 49.4485 10.6744C49.1285 10.9133 49.3501 11.095 49.4485 11.27C50.4071 13.0028 51.3758 14.7288 52.3445 16.4566C52.4212 16.5929 52.5675 16.7308 52.4893 16.899C52.4111 17.0673 52.2257 16.9714 52.0896 16.9714C51.3121 16.9798 50.5345 16.9714 49.7584 16.9848C49.5908 17.001 49.4229 16.9589 49.276 16.8639C49.129 16.769 49.0096 16.6254 48.933 16.4515C48.099 14.9206 47.2056 13.4334 46.3411 11.9261C46.2916 11.8155 46.215 11.7244 46.1209 11.6645C46.0268 11.6046 45.9195 11.5785 45.8126 11.5896C45.3087 11.6216 44.6629 11.4029 44.34 11.6889C43.9911 11.9984 44.2416 12.7857 44.2285 13.3712C44.2068 14.3991 44.2054 15.4287 44.2285 16.4566C44.2401 16.8906 44.1069 16.9916 43.7623 16.9781C43.0948 16.9546 42.4258 16.9613 41.7568 16.9865C41.4079 17 41.2964 16.8738 41.2993 16.4482C41.3166 13.8019 41.3079 11.1572 41.3079 8.51092L41.305 8.5126ZM44.2184 5.80068C44.2184 6.51231 44.2314 7.2273 44.2184 7.93893C44.2083 8.2754 44.3125 8.3797 44.5905 8.37129C45.2392 8.35278 45.8937 8.3511 46.5395 8.35615C47.3634 8.35615 47.9136 7.88005 48.2974 7.07421C48.9765 5.64759 48.2438 3.05006 46.3585 3.27718C45.8005 3.33017 45.2397 3.33017 44.6818 3.27718C44.2807 3.24858 44.1981 3.42859 44.217 3.85085C44.2401 4.49182 44.2199 5.14289 44.2184 5.80068Z" fill="white"/>
<path d="M54.1444 8.52104C54.1444 5.87473 54.1517 3.23009 54.1357 0.585463C54.1357 0.153103 54.227 0.0134694 54.615 0.0151517C57.65 0.0319751 60.685 0.0319751 63.7199 0.0151517C64.1036 0.0151517 64.218 0.137962 64.2007 0.577051C64.1717 1.30887 64.1688 2.04741 64.2007 2.77923C64.2195 3.22168 64.066 3.29234 63.733 3.28393C61.6725 3.26879 59.6135 3.29234 57.5544 3.26206C57.12 3.26206 57.0027 3.39833 57.0245 3.88789C57.0592 4.70382 57.052 5.5248 57.0245 6.34242C57.0129 6.75122 57.1113 6.8774 57.4777 6.87235C59.2153 6.84711 60.9528 6.87235 62.6803 6.84543C63.2001 6.83534 63.4419 6.94805 63.3724 7.63445C63.3253 8.28324 63.3253 8.93548 63.3724 9.58428C63.3912 10.0116 63.2551 10.1041 62.9105 10.1008C61.1223 10.0822 59.334 10.1008 57.553 10.0806C57.162 10.0806 57.0129 10.168 57.036 10.661C57.0731 11.5016 57.0731 12.3439 57.036 13.1845C57.0172 13.6656 57.1577 13.7884 57.5544 13.7851C59.6323 13.7666 61.7101 13.7952 63.788 13.7666C64.2933 13.7666 64.5569 13.8389 64.4888 14.5371C64.4446 15.1854 64.4446 15.8369 64.4888 16.4852C64.5004 16.8217 64.4396 16.9899 64.1123 16.9815C60.9326 16.9703 57.7523 16.9703 54.5716 16.9815C54.1633 16.9815 54.156 16.7477 54.1574 16.3944C54.1488 13.7682 54.1459 11.1438 54.1444 8.52104Z" fill="white"/>
<path d="M88.6832 8.49232C88.6832 5.88806 88.6933 3.27708 88.6731 0.681235C88.6731 0.176534 88.7469 0.00830078 89.2233 0.00830078C92.2052 0.0363397 95.1871 0.0363397 98.1689 0.00830078C98.6033 0.00830078 98.7264 0.151298 98.7018 0.637493C98.6677 1.30984 98.6677 1.98395 98.7018 2.65629C98.7264 3.14249 98.6106 3.29727 98.1718 3.29054C96.1447 3.26194 94.1175 3.29054 92.099 3.26698C91.6646 3.26698 91.4937 3.37129 91.5198 3.91132C91.5567 4.6874 91.5567 5.46527 91.5198 6.24135C91.4981 6.73259 91.6255 6.88737 92.0585 6.87896C93.7743 6.85036 95.4916 6.89242 97.2075 6.84531C97.778 6.83017 97.9315 7.04383 97.8837 7.66965C97.8359 8.25548 97.8359 8.84524 97.8837 9.43106C97.9329 10.0182 97.7389 10.1175 97.2755 10.104C95.5582 10.0737 93.8409 10.1191 92.1251 10.0754C91.6067 10.0636 91.4908 10.2605 91.5169 10.8139C91.5546 11.6097 91.5473 12.4105 91.5169 13.2062C91.4995 13.6655 91.6617 13.7833 92.0208 13.7816C94.1175 13.7715 96.22 13.7917 98.3094 13.7597C98.8046 13.7597 99.0334 13.8539 98.9827 14.5067C98.9436 15.1558 98.9436 15.8073 98.9827 16.4565C98.9972 16.8283 98.9118 16.9814 98.5671 16.9797C95.3874 16.9662 92.2071 16.9662 89.0264 16.9797C88.6774 16.9797 88.6514 16.8115 88.6514 16.4935C88.6514 13.827 88.6514 11.1605 88.6514 8.49568L88.6832 8.49232Z" fill="white"/>
<path d="M14.5635 0.0235905C14.2899 0.864758 13.8801 1.55452 13.5499 2.28128C12.8419 3.82062 12.1135 5.34986 11.378 6.87911C11.2679 7.10959 11.1666 7.32156 11.2954 7.57896C11.8746 8.74482 12.4538 9.91068 13.0663 11.1321C14.7257 8.00796 16.3547 4.95283 17.9677 1.8893C18.2009 1.44516 18.4557 1.12215 18.9089 0.94551C19.4606 0.731853 19.9717 0.376882 20.5567 0.0505085C20.5616 0.912846 20.6201 1.77365 20.7319 2.62616C20.7681 2.85664 20.6349 3.03329 20.5437 3.20152C18.0908 7.74159 15.6317 12.2794 13.1662 16.815C13.1503 16.8453 13.1097 16.8587 13.0214 16.9176L11.0319 13.1727C10.5975 12.3585 10.1631 11.551 9.74174 10.7249C9.54337 10.3313 9.44057 10.2202 9.19297 10.7064C8.1258 12.769 7.02099 14.8113 5.89446 16.9513C5.50205 16.3052 5.12558 15.7164 4.77807 15.1007C3.19687 12.3248 1.61567 9.54897 0.119903 6.70751C-0.0437189 6.39796 -0.0581987 6.20281 0.119903 5.87643C1.08522 4.10213 2.03172 2.311 2.95939 0.503055C3.02898 0.33743 3.14125 0.201117 3.28061 0.113075C3.41997 0.0250326 3.57948 -0.0103624 3.73696 0.0118129C4.63181 0.042095 5.52666 0.0118129 6.51708 0.0118129C5.63236 1.65041 4.84756 3.23517 3.94691 4.72235C3.33297 5.73175 3.04628 6.54096 3.83543 7.66476C4.49571 8.60518 5.03291 9.68356 5.62513 10.7014C5.81772 11.0378 5.92775 11.0042 6.10151 10.6526C7.15419 8.52443 8.2257 6.40805 9.28707 4.28831C9.93866 2.99291 10.5898 1.69751 11.2404 0.402116C11.3418 0.200236 11.4272 0.00508379 11.6748 0.00676613C12.6247 0.0286365 13.5615 0.0235905 14.5635 0.0235905ZM13.0649 12.9372C11.9282 10.7031 10.8292 8.56313 9.75044 6.40301C9.54482 5.99252 9.46083 5.87812 9.21902 6.37945C8.22715 8.42686 7.21357 10.4558 6.19998 12.488C5.8988 13.0953 5.88142 13.0886 5.56431 12.52C4.63953 10.8634 3.71332 9.20746 2.78564 7.55204C2.70311 7.40231 2.64083 7.1752 2.4468 7.25932C2.08191 7.41577 1.88934 8.26872 2.10943 8.65229C3.26202 10.6644 4.41462 12.6759 5.56721 14.6868C5.90314 15.2723 5.90315 15.2723 6.2246 14.6448C7.20344 12.7314 8.18274 10.818 9.16255 8.90464C9.45214 8.34779 9.48111 8.35283 9.76781 8.90464C10.292 9.89946 10.8176 10.892 11.3447 11.8824L13.0692 15.1259C15.0008 11.593 16.8919 8.12572 18.7801 4.66515C19.1546 3.97652 19.5258 3.28676 19.8935 2.59588C20.0977 2.20894 20.1325 1.70761 19.9051 1.43002C19.769 1.26179 19.3607 1.57975 19.1073 1.76649C18.983 1.88713 18.884 2.039 18.8177 2.21063C16.9151 5.75699 15.0182 9.29999 13.0649 12.9372Z" fill="white"/>
<path d="M23.3705 7.06919C24.5289 7.06919 25.5859 7.09274 26.6444 7.05742C27.0542 7.04396 27.1787 7.18359 27.157 7.65296C27.1237 8.38707 27.1237 9.12271 27.157 9.85682C27.1758 10.2656 27.0542 10.3481 26.7342 10.3447C25.2167 10.3447 23.6934 10.3632 22.1817 10.3447C22.0328 10.3261 21.8826 10.3626 21.7526 10.449C21.6226 10.5354 21.5194 10.6673 21.4577 10.8258C21.0856 11.6081 20.6961 12.382 20.282 13.134C20.0387 13.5781 20.1618 13.6505 20.5455 13.6488C23.0563 13.6488 25.5685 13.6606 28.075 13.6303C28.5832 13.6303 28.7309 13.7985 28.7005 14.3705C28.6716 15.0628 28.6759 15.7565 28.7136 16.4482C28.7324 16.8637 28.6151 16.9933 28.2574 16.9916C24.1741 16.977 20.0903 16.977 16.0061 16.9916C15.5833 16.9916 15.5369 16.9024 15.7483 16.4869C16.8951 14.2057 18.0313 11.9166 19.1569 9.61961C20.5933 6.68674 22.0205 3.74882 23.4386 0.805856C23.6963 0.267508 23.9729 -0.0168066 24.5608 0.0168401C25.7872 0.0858158 27.0223 0.0488057 28.2459 0.0286177C28.5702 0.0286177 28.6976 0.122829 28.6803 0.518178C28.66 1.29373 28.6643 2.07097 28.6803 2.84821C28.689 3.20655 28.5789 3.3159 28.2748 3.31085C27.406 3.29739 26.5372 3.32095 25.6685 3.31085C25.4614 3.31085 25.2732 3.31085 25.153 3.55479C24.5897 4.69037 24.0105 5.82931 23.3705 7.06919Z" fill="white"/>
<path d="M72.1196 0.0385742C72.7277 1.63679 73.3344 3.23333 73.9397 4.82818C75.2081 8.18164 76.4751 11.5357 77.7406 14.8902C77.9578 15.4639 78.1547 16.046 78.3937 16.6062C78.5254 16.9124 78.44 16.9713 78.1982 16.9713C77.3294 16.9713 76.4606 16.9713 75.5918 16.9864C75.282 16.9864 75.1951 16.7627 75.1068 16.5053C74.8606 15.7886 74.6014 15.0753 74.3828 14.3485C74.2698 13.9767 74.1091 13.8119 73.7587 13.8169C72.4555 13.8371 71.1523 13.832 69.8491 13.8169C69.5827 13.8169 69.435 13.8943 69.3322 14.219C69.0817 14.9962 68.7733 15.7499 68.4996 16.5187C68.391 16.8266 68.2419 16.9763 67.9334 16.9662C67.2833 16.9444 66.6303 16.9511 65.983 16.9797C65.5979 16.9965 65.6167 16.8115 65.734 16.4969C66.9107 13.389 68.0869 10.2812 69.2627 7.17336C70.0977 4.96501 70.9317 2.75498 71.7648 0.543275C71.8474 0.3599 71.885 0.151291 72.1196 0.0385742ZM73.2693 11.0831L71.8922 7.13298C71.3927 8.52764 70.9409 9.78266 70.4747 11.0831H73.2693Z" fill="white"/>
<path d="M83.6759 10.1124C83.6759 12.2103 83.6643 14.3082 83.686 16.406C83.686 16.8619 83.5586 16.9915 83.1937 16.9797C82.545 16.9595 81.8905 16.936 81.2447 16.9797C80.7857 17.0133 80.7089 16.793 80.7104 16.3253C80.7249 12.2338 80.7104 8.14239 80.735 4.04422C80.735 3.4268 80.6337 3.20305 80.0646 3.25352C79.2928 3.32082 78.5124 3.25353 77.7362 3.28044C77.3467 3.29727 77.2439 3.13576 77.2599 2.70508C77.2859 1.9514 77.2758 1.19098 77.2599 0.438978C77.2599 0.102511 77.3598 0.00830078 77.6392 0.00830078C80.7089 0.0172732 83.7787 0.0172732 86.8484 0.00830078C87.1278 0.00830078 87.2321 0.0924159 87.2249 0.427201C87.2075 1.22463 87.2075 2.02205 87.2249 2.81948C87.2335 3.17782 87.1235 3.28381 86.8209 3.27708C85.9521 3.25521 85.0833 3.29222 84.2145 3.25857C83.8047 3.24343 83.6541 3.35278 83.6614 3.87094C83.6918 5.95872 83.6759 8.03472 83.6759 10.1124Z" fill="white"/>
</g>
<defs>
<clipPath id="clip0_645_1464">
<rect width="99" height="17" fill="white"/>
</clipPath>
</defs>
</svg>
