<svg width="38" height="38" viewBox="0 0 38 38" fill="none" xmlns="http://www.w3.org/2000/svg">
<g id="ant-design:youtube-outlined">
<path id="Vector" d="M35.625 18.896C35.625 18.8144 35.625 18.7216 35.6213 18.614C35.6176 18.3134 35.6102 17.9757 35.6027 17.6158C35.573 16.5804 35.5211 15.5488 35.4395 14.5765C35.3281 13.2369 35.1648 12.1199 34.9422 11.2812C34.7072 10.406 34.2467 9.60775 33.6065 8.96631C32.9664 8.32486 32.1691 7.86267 31.2943 7.62593C30.2441 7.3439 28.1883 7.16948 25.2937 7.06187C23.917 7.00991 22.4437 6.97651 20.9705 6.95796C20.4547 6.95054 19.976 6.94683 19.5455 6.94312H18.4545C18.024 6.94683 17.5453 6.95054 17.0295 6.95796C15.5562 6.97651 14.083 7.00991 12.7063 7.06187C9.81172 7.17319 7.75215 7.34761 6.70566 7.62593C5.83063 7.86209 5.03303 8.32409 4.3928 8.96562C3.75257 9.60715 3.2922 10.4057 3.05781 11.2812C2.83145 12.1199 2.67188 13.2369 2.56055 14.5765C2.47891 15.5488 2.42695 16.5804 2.39727 17.6158C2.38613 17.9757 2.38242 18.3134 2.37871 18.614C2.37871 18.7216 2.375 18.8144 2.375 18.896V19.1039C2.375 19.1855 2.375 19.2783 2.37871 19.3859C2.38242 19.6865 2.38984 20.0242 2.39727 20.3841C2.42695 21.4195 2.47891 22.4511 2.56055 23.4234C2.67188 24.763 2.83516 25.88 3.05781 26.7187C3.53281 28.4962 4.92812 29.899 6.70566 30.374C7.75215 30.656 9.81172 30.8304 12.7063 30.938C14.083 30.99 15.5562 31.0234 17.0295 31.0419C17.5453 31.0494 18.024 31.0531 18.4545 31.0568H19.5455C19.976 31.0531 20.4547 31.0494 20.9705 31.0419C22.4437 31.0234 23.917 30.99 25.2937 30.938C28.1883 30.8267 30.2479 30.6523 31.2943 30.374C33.0719 29.899 34.4672 28.5 34.9422 26.7187C35.1686 25.88 35.3281 24.763 35.4395 23.4234C35.5211 22.4511 35.573 21.4195 35.6027 20.3841C35.6139 20.0242 35.6176 19.6865 35.6213 19.3859C35.6213 19.2783 35.625 19.1855 35.625 19.1039V18.896ZM32.9531 19.089C32.9531 19.1669 32.9531 19.2523 32.9494 19.3525C32.9457 19.6419 32.9383 19.9611 32.9309 20.3062C32.9049 21.2933 32.8529 22.2804 32.775 23.197C32.6748 24.3919 32.5338 25.3716 32.3594 26.0285C32.1293 26.8857 31.4539 27.5648 30.6004 27.7912C29.8211 27.999 27.858 28.166 25.1898 28.2662C23.8391 28.3181 22.3844 28.3515 20.9334 28.3701C20.425 28.3775 19.9537 28.3812 19.5307 28.3812H18.4693L17.0666 28.3701C15.6156 28.3515 14.1646 28.3181 12.8102 28.2662C10.142 28.1623 8.1752 27.999 7.39961 27.7912C6.54609 27.5611 5.8707 26.8857 5.64062 26.0285C5.46621 25.3716 5.3252 24.3919 5.225 23.197C5.14707 22.2804 5.09883 21.2933 5.06914 20.3062C5.05801 19.9611 5.0543 19.6382 5.05059 19.3525C5.05059 19.2523 5.04688 19.1632 5.04688 19.089V18.9109C5.04688 18.833 5.04688 18.7476 5.05059 18.6474C5.0543 18.358 5.06172 18.0388 5.06914 17.6937C5.09512 16.7066 5.14707 15.7195 5.225 14.8029C5.3252 13.608 5.46621 12.6283 5.64062 11.9714C5.8707 11.1142 6.54609 10.4351 7.39961 10.2087C8.17891 10.0009 10.142 9.83393 12.8102 9.73374C14.1609 9.68179 15.6156 9.64839 17.0666 9.62983C17.575 9.62241 18.0463 9.6187 18.4693 9.6187H19.5307L20.9334 9.62983C22.3844 9.64839 23.8354 9.68179 25.1898 9.73374C27.858 9.83765 29.8248 10.0009 30.6004 10.2087C31.4539 10.4388 32.1293 11.1142 32.3594 11.9714C32.5338 12.6283 32.6748 13.608 32.775 14.8029C32.8529 15.7195 32.9012 16.7066 32.9309 17.6937C32.942 18.0388 32.9457 18.3617 32.9494 18.6474C32.9494 18.7476 32.9531 18.8367 32.9531 18.9109V19.089ZM15.6973 23.9726L24.3066 18.9628L15.6973 14.0273V23.9726Z" fill="#EDEDED"/>
</g>
</svg>
