<svg xmlns="http://www.w3.org/2000/svg" width="39" height="39" viewBox="0 0 39 39" fill="none">
<path d="M13 21.125V7.3125C13 6.66603 13.2568 6.04605 13.7139 5.58893C14.171 5.13181 14.791 4.875 15.4375 4.875C16.084 4.875 16.704 5.13181 17.1611 5.58893C17.6182 6.04605 17.875 6.66603 17.875 7.3125V19.5M17.875 18.6875V15.4375C17.875 14.791 18.1318 14.171 18.5889 13.7139C19.046 13.2568 19.666 13 20.3125 13C20.959 13 21.579 13.2568 22.0361 13.7139C22.4932 14.171 22.75 14.791 22.75 15.4375V19.5M22.75 17.0625C22.75 16.416 23.0068 15.796 23.4639 15.3389C23.921 14.8818 24.541 14.625 25.1875 14.625C25.834 14.625 26.454 14.8818 26.9111 15.3389C27.3682 15.796 27.625 16.416 27.625 17.0625V19.5" stroke="white" stroke-width="2" stroke-linecap="round" stroke-linejoin="round"/>
<path d="M27.625 18.6875C27.625 18.041 27.8818 17.421 28.3389 16.9639C28.796 16.5068 29.416 16.25 30.0625 16.25C30.709 16.25 31.329 16.5068 31.7861 16.9639C32.2432 17.421 32.5 18.041 32.5 18.6875V26C32.5 28.5859 31.4728 31.0658 29.6443 32.8943C27.8158 34.7228 25.3359 35.75 22.75 35.75H19.5H19.838C18.2233 35.7503 16.6338 35.3495 15.2122 34.5837C13.7907 33.8179 12.5816 32.711 11.6935 31.3625L11.375 30.875C10.868 30.0966 9.08862 26.9945 6.03525 21.567C5.72398 21.0137 5.64083 20.3609 5.8035 19.7472C5.96616 19.1336 6.36179 18.6077 6.90625 18.2812C7.48618 17.9333 8.16574 17.7891 8.83701 17.8715C9.50828 17.9539 10.1328 18.2583 10.6113 18.7362L13 21.125M8.125 4.875L6.5 3.25M6.5 11.375H4.875M22.75 4.875L24.375 3.25M24.375 9.75H26" stroke="white" stroke-width="2" stroke-linecap="round" stroke-linejoin="round"/>
</svg>