<svg width="151" height="43" viewBox="0 0 151 43" fill="none" xmlns="http://www.w3.org/2000/svg">
<g clip-path="url(#clip0_645_1339)">
<path d="M27.1215 42.9999C26.3547 42.7237 25.547 42.5532 24.8557 42.0891C23.5756 41.232 22.982 39.9407 22.6514 38.5168C22.2672 36.8783 22.2436 35.2018 22.1601 33.5207C22.0814 31.9342 22.02 30.3367 21.2422 28.8781C20.5037 27.4937 19.3118 26.867 17.8065 26.7155C16.2587 26.5576 14.7047 26.6018 13.1522 26.605C12.92 26.6099 12.6917 26.5444 12.4972 26.4172C12.4145 26.3724 12.3475 26.3033 12.3053 26.2191C12.2632 26.1349 12.2478 26.0397 12.2614 25.9465C12.275 25.8533 12.3168 25.7665 12.3812 25.698C12.4457 25.6294 12.5296 25.5823 12.6216 25.5632C12.8321 25.5185 13.0475 25.5015 13.2624 25.5126C14.6984 25.5126 16.1375 25.4574 17.5672 25.5568C18.8914 25.65 19.7007 24.9444 20.3809 24.0035C21.1257 22.9727 21.4059 21.7714 21.4689 20.5102C21.5524 18.818 21.3729 17.1731 20.6344 15.6261C20.4019 15.0872 20.0591 14.6032 19.6283 14.2054C19.2298 13.8291 18.7035 13.6186 18.1561 13.6166C16.5626 13.6277 14.9708 13.6166 13.3789 13.6166C12.8924 13.6166 12.3854 13.6419 12.2972 13.0089C12.2311 12.5353 12.6027 12.3143 13.3506 12.3143C15.218 12.3143 17.0854 12.3522 18.9528 12.3048C21.0926 12.2496 22.8136 13.0862 24.1992 14.649C25.4735 16.0404 26.1677 17.8684 26.139 19.7572C26.0965 22.5986 24.629 24.5781 22.0594 25.7447C21.5539 25.9736 21.0139 26.1251 20.4376 26.3303C21.0469 26.5008 21.6342 26.646 22.2089 26.8292C25.1171 27.7684 26.7956 29.8395 26.89 33.055C26.931 34.4678 26.8822 35.8838 26.89 37.2982C26.8975 38.0974 27.0319 38.8903 27.2884 39.6471C27.8789 41.3645 29.17 41.9565 31.0122 41.3835C31.2689 41.3046 31.5161 41.1972 31.7743 41.1199C31.8339 41.0947 31.8981 41.0821 31.9628 41.0829C32.0274 41.0836 32.0913 41.0977 32.1503 41.1241C32.2094 41.1506 32.2624 41.189 32.306 41.2369C32.3497 41.2848 32.3831 41.3411 32.4041 41.4024C32.5049 41.6455 32.3868 41.8223 32.1537 41.9802C31.3665 42.5106 30.4769 42.719 29.5983 42.9889L27.1215 42.9999Z" fill="#5E6162"/>
<path d="M150.998 27.0708C148.939 26.9903 146.879 26.8924 144.818 27.0708C144.504 27.0992 144.371 27.0187 144.379 26.6651C144.387 26.3494 144.45 26.2358 144.796 26.2326C146.02 26.22 146.173 25.9579 145.706 24.7772C145.467 24.1663 145.203 23.5633 144.999 22.9413C144.981 22.8277 144.918 22.7261 144.826 22.6584C144.733 22.5907 144.617 22.5625 144.504 22.5798C142.929 22.5893 141.354 22.5972 139.789 22.5798C139.501 22.5798 139.415 22.7156 139.341 22.916C139.09 23.5838 138.843 24.2499 138.607 24.9224C138.292 25.8443 138.567 26.25 139.552 26.2421C139.936 26.2421 140.241 26.2215 140.167 26.7709C140.131 27.0471 140.043 27.0866 139.805 27.0629C138.419 26.9098 137.02 26.9098 135.634 27.0629C135.426 27.085 135.255 27.0503 135.319 26.7993C135.37 26.6115 135.11 26.25 135.522 26.2531C136.398 26.2531 136.791 25.7133 137.087 25.0108C137.864 23.1639 138.662 21.3233 139.422 19.4732C140.347 17.249 141.293 15.0343 142.083 12.758C142.213 12.3839 142.398 12.3065 142.759 12.3128C143.776 12.3271 143.773 12.3128 144.176 13.2363C145.87 17.1827 147.575 21.1291 149.257 25.0913C149.597 25.8932 150.155 26.2689 151.008 26.2436L150.998 27.0708ZM142.135 15.9388C141.419 17.7415 140.756 19.4116 140.088 21.0833C139.958 21.4101 140.214 21.3359 140.362 21.3375C141.558 21.3375 142.753 21.3375 143.948 21.3375C144.313 21.3375 144.33 21.2207 144.2 20.9223C143.929 20.3083 143.694 19.6768 143.436 19.0549C143.027 18.0588 142.605 17.0596 142.135 15.9388Z" fill="#5E6162"/>
<path d="M150.998 39.9329C150.306 41.3347 148.284 41.8272 146.985 40.8974C146.553 40.5896 146.237 39.5493 146.396 39.0252C146.445 38.8674 146.542 38.8674 146.657 38.8674C146.892 38.8808 147.128 38.8808 147.363 38.8674C147.747 38.8216 147.95 38.9258 147.923 39.3552C147.897 39.7845 148.065 40.0924 148.506 40.165C148.887 40.2281 149.265 40.1792 149.441 39.7609C149.63 39.3125 149.621 38.8595 149.192 38.558C148.684 38.206 148.159 37.8799 147.618 37.5809C146.443 36.9179 146.331 36.1081 146.646 34.7852C146.69 34.6032 146.775 34.4337 146.895 34.2897C147.014 34.1458 147.165 34.0312 147.336 33.9549C147.766 33.7499 148.235 33.639 148.711 33.6298C149.187 33.6205 149.66 33.7131 150.098 33.9012C150.597 34.1049 150.825 34.5153 150.885 35.0346C150.904 35.1767 150.814 35.3504 151 35.4514V36.0418C150.63 36.0418 150.257 36.0228 149.887 36.0418C149.572 36.0639 149.438 35.9818 149.457 35.6329C149.481 35.2209 149.362 34.8436 148.887 34.7473C148.597 34.6905 148.289 34.7316 148.128 35.0268C147.933 35.3851 147.871 35.756 148.175 36.1033C148.479 36.4506 148.885 36.6322 149.262 36.8689C149.923 37.2825 150.649 37.6266 150.994 38.3954L150.998 39.9329Z" fill="#5E6162"/>
<path d="M102.616 0V5.88488C102.024 3.91641 100.933 2.5699 99.1266 1.92742C96.6373 1.04027 94.2456 1.23601 92.1751 2.9598C90.8619 4.05374 90.5454 5.57074 91.4634 7.44291C92.0932 8.71839 93.0962 9.66553 94.2015 10.5274C96.3586 12.2086 98.5661 13.8314 100.583 15.683C101.751 16.7533 102.918 17.9104 103.195 19.5331C103.803 23.1007 102.858 25.7242 99.4794 27.6438C98.2197 28.3604 96.8294 28.7756 95.4438 29.1797C95.2316 29.2255 95.012 29.2255 94.7998 29.1797C94.6641 29.1637 94.5373 29.104 94.4385 29.0094C94.3397 28.9149 94.2742 28.7907 94.2519 28.6556C94.1747 28.2941 94.4707 28.2136 94.6943 28.1505C95.8988 27.8174 97.0561 27.3612 98.0355 26.583C99.5848 25.3406 100.583 23.7921 100.383 21.6973C100.274 20.5434 99.651 19.6326 98.9046 18.8022C97.0451 16.7359 94.7321 15.2268 92.4994 13.6182C90.7548 12.3554 89.2322 10.9347 88.4528 8.83994C87.2987 5.73965 89.1393 0.863472 93.3953 0.257305C94.9444 0.0525311 96.5103 0.00757024 98.0686 0.123128C99.5691 0.224155 101.081 0.250991 102.616 0Z" fill="#5E6162"/>
<path d="M126.546 16.7596C125.181 20.1124 123.582 23.2317 122.413 26.5466C122.346 26.7329 122.362 27.0676 122.038 27.0691C121.608 27.0691 121.175 27.137 120.753 27.017C120.706 27.0044 120.696 26.8497 120.676 26.7582C119.731 22.696 118.786 18.6344 117.842 14.5733C117.684 13.8787 117.543 13.1636 116.549 13.2583C116.204 13.2899 116.313 12.9789 116.288 12.7847C116.259 12.5464 116.329 12.4375 116.603 12.439C118.45 12.4506 120.298 12.4506 122.146 12.439C122.431 12.439 122.472 12.5653 122.45 12.7926C122.431 12.9931 122.516 13.2094 122.18 13.2662C120.808 13.5203 120.835 13.5251 121.118 14.8353C121.666 17.361 122.184 19.8867 122.743 22.5576C123.149 21.6105 123.512 20.7928 123.858 19.9656C124.848 17.5978 125.858 15.2378 126.804 12.8526C127.046 12.2417 127.454 12.308 127.906 12.3254C128.205 12.3364 128.139 12.6221 128.191 12.7658C129.328 15.9229 130.662 19.0011 131.877 22.1251C131.924 22.2252 131.977 22.3226 132.035 22.4171C132.471 20.7517 132.886 19.1842 133.294 17.6136C133.59 16.4559 133.875 15.2947 134.148 14.1297C134.283 13.5535 134.074 13.2994 133.477 13.2678C133.281 13.2567 133.084 13.2567 132.888 13.2678C132.546 13.2883 132.472 13.1241 132.463 12.8068C132.452 12.4643 132.6 12.4327 132.877 12.4343C134.154 12.4454 135.432 12.4343 136.709 12.4343C136.914 12.4343 137.123 12.4106 137.075 12.72C137.043 12.9252 137.196 13.2836 136.812 13.2473C135.919 13.1604 135.736 13.8187 135.552 14.4217C135.051 16.1029 134.59 17.7967 134.122 19.4873C133.461 21.8851 132.671 24.2483 132.214 26.6998C132.168 26.9365 132.057 27.077 131.742 27.0802C130.591 27.0928 130.619 27.1023 130.147 25.8726C129.202 23.4085 128.221 20.9554 127.251 18.4991C127.043 17.9561 126.809 17.4083 126.546 16.7596Z" fill="#5E6162"/>
<path d="M69.4955 12.439C70.478 12.439 71.4605 12.439 72.443 12.439C72.6934 12.439 72.8713 12.458 72.8351 12.7768C72.8083 13.012 72.9154 13.2409 72.4887 13.2867C71.0023 13.4446 71.0055 13.4714 71.0055 14.9679V24.586C71.0055 24.7628 71.0055 24.9412 71.0055 25.1164C71.0763 25.942 71.2731 26.122 72.1076 26.133C72.4934 26.133 72.865 26.1141 72.8351 26.6982C72.8193 27.0139 72.7249 27.1023 72.4241 27.0833C71.619 27.0307 70.8144 26.9912 70.0104 26.9649C68.8704 26.9255 67.732 27.0218 66.5952 27.0739C66.4078 27.0833 66.1228 27.1859 66.1575 26.8039C66.1764 26.5245 66.0677 26.1962 66.518 26.1457C66.9683 26.0952 67.4517 26.2783 67.7777 25.8536C68.0784 25.4669 67.9556 24.976 67.9713 24.5418C68.0249 23.1211 68.0028 21.7115 68.0186 20.2971C68.0186 20.0603 67.9257 19.9956 67.7037 19.9972C65.6987 19.9972 63.6938 19.9972 61.6889 19.9972C61.4307 19.9972 61.3472 20.0871 61.352 20.3381C61.385 22.0461 61.2811 23.7573 61.4417 25.4637C61.5015 26.0951 61.9818 26.1346 62.4793 26.1393C62.8367 26.1393 63.2461 26.0652 63.2209 26.6745C63.2068 27.0186 63.1076 27.107 62.7848 27.0849C61.9818 27.0312 61.1772 26.9934 60.371 26.9665C59.2515 26.9302 58.1336 27.0123 57.0157 27.077C56.7968 27.0896 56.5323 27.1686 56.5433 26.7613C56.5559 26.4456 56.5528 26.1962 56.9606 26.1299C58.3651 25.9152 58.3635 25.9057 58.3635 24.4534V14.84C58.3635 13.5093 58.3289 13.443 57.0425 13.2946C56.6441 13.2488 56.5228 13.1541 56.5402 12.7468C56.5591 12.2733 56.8724 12.4469 57.0802 12.4453C58.9697 12.4343 60.8591 12.4374 62.7486 12.4453C62.9596 12.4453 63.2398 12.338 63.2209 12.761C63.2052 13.0768 63.254 13.3451 62.7848 13.2946C62.5392 13.2678 62.2841 13.3767 62.0306 13.3909C61.6401 13.4114 61.4795 13.6419 61.4464 13.9876C61.3079 15.4572 61.385 16.9316 61.3567 18.4076C61.3567 18.7769 61.6008 18.7675 61.8291 18.7738C62.4179 18.7911 63.0084 18.7864 63.5973 18.7864C64.8569 18.7864 66.1165 18.7769 67.3762 18.7864C67.8485 18.7864 68.0705 18.6775 68.0469 18.1234C67.9918 16.7895 68.0611 15.4525 67.9524 14.117C67.9146 13.6545 67.7635 13.3877 67.2581 13.3893C67.0471 13.3893 66.8298 13.2741 66.6283 13.2946C66.2031 13.3372 66.1779 13.1241 66.1669 12.7816C66.1527 12.3269 66.4519 12.4548 66.6755 12.4532C67.6139 12.4311 68.5508 12.439 69.4955 12.439Z" fill="#5E6162"/>
<path d="M50.2671 18.8891C51.2512 19.0201 52.1692 19.0943 53.0131 19.5205C54.2979 20.1772 54.6806 21.5427 54.5672 22.6776C54.2901 25.4575 51.9472 26.7077 49.8593 26.9745C47.9494 27.2192 46.0537 26.763 44.1532 26.9997C43.8999 27.0337 43.645 27.0542 43.3895 27.0613C43.2588 27.0613 43.0416 27.1671 43.0368 26.9035C43.0368 26.7456 42.9581 26.5483 43.2053 26.463C44.0871 26.1615 44.1296 25.4654 44.1217 24.6682C44.0933 21.2869 44.1107 17.9041 44.1091 14.5228C44.1091 13.5204 43.8839 13.2868 42.8668 13.2757C42.5393 13.2757 42.322 13.2631 42.3188 12.8164C42.3188 12.3428 42.5975 12.4454 42.8526 12.4454C45.5293 12.4454 48.206 12.4091 50.8828 12.4612C51.9849 12.4833 53.032 12.7769 53.6965 13.8172C54.2964 14.7533 54.1688 16.8622 52.9785 17.6057C52.562 17.8908 52.1222 18.1401 51.6637 18.3508C51.2166 18.5197 50.7726 18.6902 50.2671 18.8891ZM47.1684 22.6461C47.1684 23.549 47.1684 24.4504 47.1684 25.3533C47.1684 25.5285 47.1023 25.7069 47.3857 25.8111C48.2785 26.141 50.1128 25.6532 50.7174 24.9066C51.363 24.1173 51.3126 23.1702 51.3047 22.2435C51.2937 20.8607 50.549 19.9089 49.2043 19.6626C48.6696 19.5503 48.1241 19.4974 47.5778 19.5047C47.244 19.5174 47.1511 19.6073 47.159 19.9373C47.1826 20.8418 47.1684 21.7447 47.1684 22.6461ZM47.1684 15.9798C47.1684 16.687 47.1684 17.4005 47.1684 18.0998C47.1684 18.2356 47.0913 18.4566 47.3464 18.4503C48.3509 18.425 49.3791 18.4629 50.2026 17.7289C50.9583 17.0564 50.8686 16.1582 50.8324 15.2774C50.7977 14.4202 50.3522 13.8566 49.5507 13.6214C48.8784 13.4225 48.1919 13.5299 47.5133 13.503C47.2172 13.492 47.1606 13.6609 47.1637 13.9198C47.1747 14.6065 47.1684 15.2931 47.1684 15.9798Z" fill="#5E6162"/>
<path d="M76.0772 19.2774C76.0772 17.9798 76.0583 16.6822 76.0866 15.3847C76.0976 14.8685 75.978 14.3728 75.9559 13.8645C75.9449 13.6167 75.7985 13.462 75.5339 13.3657C75.214 13.2707 74.879 13.2375 74.5467 13.2678C74.1987 13.2678 74.1956 13.0673 74.1877 12.8069C74.1799 12.5464 74.2334 12.4296 74.5373 12.4312C76.5432 12.4454 78.5476 12.4406 80.5536 12.4312C80.7835 12.4312 80.933 12.4612 80.9063 12.7469C80.8858 12.9789 80.9535 13.2441 80.5914 13.2536H80.5331C79.2262 13.1905 79.0546 13.4114 79.0405 14.93C79.02 17.0911 79.0405 19.2553 79.0405 21.4163C79.0537 22.1389 79.1493 22.8576 79.3255 23.5584C79.5475 24.5166 80.2198 25.1054 81.133 25.3596C82.3059 25.6894 83.5482 25.6785 84.7151 25.328C85.9417 24.9665 86.4833 24.0462 86.7116 22.8576C86.8927 21.9199 86.814 20.9791 86.8218 20.0398C86.836 18.1929 86.8218 16.3444 86.8218 14.4959C86.8218 13.4335 86.6644 13.2789 85.6126 13.2536C85.4284 13.2536 85.2048 13.3325 85.0757 13.1242C85.0314 13.0544 85.0072 12.9737 85.0056 12.8911C85.0039 12.8084 85.025 12.7269 85.0664 12.6554C85.1078 12.5839 85.1681 12.5251 85.2405 12.4856C85.3129 12.4461 85.3948 12.4272 85.4772 12.4312C86.8533 12.4312 88.2295 12.4312 89.6056 12.4312C89.8245 12.4312 90.0433 12.387 90.015 12.7469C89.9929 13.0089 90.0433 13.2804 89.6481 13.2599C89.5505 13.2599 89.4513 13.2599 89.3537 13.2599C88.379 13.2741 88.1224 13.5362 88.1208 14.537C88.1208 17.0721 88.1633 19.6105 88.1035 22.144C88.0673 23.7226 87.6595 25.1844 86.318 26.2152C85.4865 26.8333 84.4935 27.1953 83.4602 27.257C81.7077 27.4007 79.9474 27.4054 78.3067 26.594C76.8408 25.8679 76.0173 24.7503 76.0724 23.0454C76.1087 21.7952 76.0772 20.5355 76.0772 19.2774Z" fill="#5E6162"/>
<path d="M114.825 23.4512C114.77 24.4189 114.693 25.3849 114.668 26.3526C114.658 26.8009 114.526 26.9477 114.061 26.984C112.102 27.1158 110.136 27.1158 108.177 26.984C106.96 26.9198 105.739 26.9457 104.526 27.0614C104.368 27.0756 104.112 27.2192 104.043 26.9209C104.024 26.8661 104.016 26.8081 104.021 26.7503C104.026 26.6926 104.042 26.6364 104.069 26.5853C104.096 26.5342 104.134 26.4893 104.179 26.4533C104.224 26.4174 104.276 26.3911 104.332 26.3763C104.962 26.1505 105.12 25.6817 105.12 25.0424C105.096 21.5254 105.109 18.0068 105.109 14.4881C105.109 13.5094 104.89 13.2916 103.904 13.2711C103.619 13.2711 103.309 13.3453 103.325 12.8543C103.336 12.5165 103.428 12.4344 103.756 12.4376C105.645 12.4518 107.535 12.4376 109.424 12.4376C110.977 12.4376 112.529 12.4471 114.082 12.4376C114.453 12.4376 114.6 12.5134 114.57 12.9333C114.513 13.7336 114.412 14.526 114.337 15.3248C114.298 15.7826 114.011 15.5931 113.802 15.6294C113.52 15.68 113.499 15.5174 113.487 15.2885C113.409 13.7967 113.225 13.6262 111.734 13.6262C110.811 13.6262 109.888 13.6262 108.963 13.6262C108.443 13.6262 108.124 13.7273 108.162 14.4155C108.234 15.7668 108.196 17.1259 108.174 18.4819C108.174 18.8544 108.284 18.9555 108.647 18.9397C109.492 18.916 110.338 18.9397 111.182 18.9302C112.101 18.9302 112.331 18.7234 112.304 17.7984C112.29 17.3248 112.462 17.2759 112.866 17.2648C113.398 17.2506 113.26 17.5805 113.228 17.8426C113.087 19.0012 113.156 20.1552 113.247 21.3154C113.269 21.5996 113.358 21.9058 112.847 21.8805C112.468 21.8616 112.331 21.8127 112.301 21.377C112.219 20.2246 112.156 19.9563 110.884 19.9942C110.138 20.0163 109.391 20.0163 108.643 19.9942C108.306 19.9847 108.171 20.0399 108.171 20.4314C108.198 22.0637 108.193 23.6943 108.171 25.325C108.171 25.6675 108.226 25.7985 108.612 25.7906C109.791 25.7622 110.974 25.7906 112.15 25.7733C112.497 25.7448 112.842 25.6867 113.18 25.5996C113.296 25.5903 113.405 25.538 113.485 25.4529C113.565 25.3677 113.611 25.2558 113.614 25.1387C113.654 24.823 113.772 24.5073 113.839 24.1916C114.013 23.3739 114.011 23.3739 114.825 23.4512Z" fill="#5E6162"/>
<path d="M4.8369 19.2396C4.8369 20.7724 4.82902 22.3051 4.8369 23.8395C4.8369 24.3667 4.89516 24.8955 4.93767 25.4181C4.97074 25.8253 5.25258 25.9737 5.61472 26.0005C5.90758 26.0211 6.20202 26.0479 6.49174 26.0637C6.94206 26.0874 6.96411 26.3131 6.94836 26.6635C6.93419 27.1371 6.59094 26.9414 6.39727 26.9382C5.43523 26.9256 4.47476 26.8482 3.51271 26.8498C2.51288 26.8498 1.51305 26.9224 0.513215 26.9398C0.327419 26.9398 0.0188061 27.1071 -0.00166292 26.6793C-0.0189829 26.3241 0.0172292 26.0605 0.448653 26.0479C0.52738 26.0479 0.606112 26.0005 0.680116 26.0116C1.65476 26.1521 1.8563 25.6327 1.86102 24.7077C1.87677 21.3264 1.87677 17.9457 1.86102 14.5654C1.86102 13.3642 1.66105 13.17 0.462828 13.1558C0.100684 13.1558 0.00148808 13.0437 -0.0095337 12.6822C-0.02213 12.2639 0.217203 12.316 0.475427 12.316C3.20568 12.316 5.93751 12.2355 8.66304 12.3444C10.521 12.417 11.6358 13.1495 11.8625 14.7912C12.1963 17.2001 11.0296 19.1149 8.57486 19.8663C7.81436 20.0983 7.03496 20.0588 6.25714 19.9862C5.78477 19.942 5.64622 19.5553 5.56119 19.219C5.49821 18.9712 5.77375 18.9033 6.01308 18.9617C7.82853 19.4464 8.81419 18.0146 8.82679 16.556C8.82679 15.6515 8.80947 14.7864 8.14816 14.0382C7.48685 13.29 5.80997 13.29 5.06994 13.4794C4.73456 13.5646 4.83218 13.7951 4.83218 13.9861C4.83375 15.7462 4.8369 17.4826 4.8369 19.2396Z" fill="#5E6162"/>
<path d="M37.6142 26.9414C36.6522 26.9856 35.6902 27.0172 34.7297 27.0772C34.388 27.0993 34.3077 26.9809 34.3046 26.6525C34.3014 26.3242 34.4132 26.2011 34.7391 26.2405C34.915 26.2587 35.0923 26.2587 35.2682 26.2405C35.7405 26.1979 35.9862 25.9248 35.887 25.4513C35.6901 24.5041 35.2005 23.6501 34.8966 22.7346C34.8273 22.523 34.6431 22.5862 34.4982 22.5862C32.9237 22.5862 31.3491 22.5862 29.7746 22.5862C29.6704 22.5688 29.5636 22.5937 29.4777 22.6552C29.3918 22.7168 29.3338 22.8101 29.3164 22.9145C29.0771 23.6454 28.7763 24.3557 28.5291 25.0835C28.2819 25.8112 28.5291 26.1995 29.307 26.2421C29.4835 26.2579 29.6611 26.2579 29.8376 26.2421C30.2737 26.1932 30.1525 26.501 30.184 26.7378C30.2186 27.0535 30.0612 27.0945 29.7998 27.0645C28.4119 26.9154 27.012 26.9154 25.6241 27.0645C25.421 27.0866 25.1958 27.1119 25.2525 26.7962C25.2903 26.5926 25.0667 26.2279 25.5391 26.2516C26.2287 26.2863 26.6523 25.879 26.9026 25.325C27.5136 23.9721 28.0883 22.602 28.6504 21.2286C29.8218 18.3746 31.0956 15.5616 32.086 12.6349C32.1585 12.4187 32.2923 12.3192 32.5584 12.3192C33.7235 12.2971 33.7283 12.2797 34.1991 13.3721C35.8759 17.2727 37.5591 21.1718 39.2203 25.0803C39.5147 25.7764 39.9556 26.22 40.7224 26.2468C41.1444 26.2611 40.9743 26.5468 41.0058 26.7457C41.0483 27.0014 40.9365 27.0882 40.6783 27.0866C39.658 27.0756 38.6314 27.0866 37.6158 27.0866L37.6142 26.9414ZM34.3203 21.2981C33.5897 19.5206 32.8686 17.7716 32.1065 15.9215C31.3775 17.7684 30.6894 19.5238 29.9683 21.3407H34.0621C34.1491 21.3328 34.2354 21.3185 34.3203 21.2981Z" fill="#5E6162"/>
<path d="M86.2298 38.8405C86.2511 38.4039 86.2479 37.9665 86.2203 37.5303C86.1589 36.9857 86.5132 37.093 86.8076 37.1009C87.1021 37.1088 87.4579 36.943 87.417 37.5066C87.3697 38.138 87.3351 38.7884 87.0847 39.3819C86.9273 39.7513 86.9273 40.0133 87.2422 40.3133C87.4894 40.5469 87.6547 40.8673 87.9145 41.2304C87.4217 41.2304 87.0029 41.2304 86.5841 41.2304C86.5116 41.2304 86.3935 41.2162 86.3746 41.1736C86.1054 40.5516 85.7795 40.9415 85.4299 41.0883C84.0963 41.655 82.3139 41.2999 81.9187 39.715C81.6683 38.711 82.032 37.8539 83.1468 37.0551C82.9106 36.6194 82.5674 36.2658 82.4367 35.7481C82.1706 34.6952 82.7721 33.7544 83.8412 33.6833C84.2695 33.6549 84.7103 33.5997 85.1229 33.7386C86.14 34.0795 86.4597 35.3755 85.7527 36.2264C85.6519 36.3463 85.537 36.4537 85.4236 36.5642C84.8237 37.1483 84.8206 37.1514 85.3055 37.827C85.5622 38.1806 85.8361 38.5232 86.1022 38.872L86.2298 38.8405ZM83.1626 39.0646C83.1626 40.1238 84.1498 40.6827 85.1071 40.1696C85.3701 40.0307 85.4567 39.9376 85.2236 39.6755C84.8647 39.2698 84.5419 38.8294 84.2112 38.4001C84.0727 38.2185 83.9672 37.9075 83.7388 37.9454C83.4728 37.9896 83.3547 38.2927 83.2334 38.5437C83.1743 38.7106 83.1502 38.888 83.1626 39.0646ZM84.8127 35.2682C84.8379 34.8767 84.7088 34.6273 84.2663 34.6178C83.8239 34.6083 83.6712 34.8436 83.6365 35.2145C83.6066 35.5508 84.0727 36.3416 84.2333 36.2548C84.6111 36.0512 84.8505 35.7307 84.8127 35.2682Z" fill="#5E6162"/>
<path d="M109.086 37.5461C110.111 37.8192 110.134 38.6258 110.169 39.4151C110.191 39.8887 110.169 40.3622 110.185 40.8358C110.196 41.1136 110.158 41.2573 109.816 41.2447C108.593 41.2005 108.64 41.4625 108.643 40.086C108.643 39.7703 108.627 39.4546 108.643 39.1389C108.655 38.9047 108.589 38.6732 108.456 38.4806C108.202 38.0781 107.771 38.1223 107.396 38.1807C107.045 38.2359 107.239 38.569 107.239 38.7647C107.21 39.4514 107.217 40.1413 107.239 40.8279C107.239 41.1121 107.201 41.2352 106.866 41.2431C105.719 41.2683 105.719 41.2841 105.719 40.1207C105.719 38.2154 105.751 36.3085 105.702 34.4032C105.685 33.7718 105.886 33.6313 106.455 33.6865C107.095 33.7497 107.743 33.7181 108.391 33.7702C109.69 33.8744 110.111 34.5216 110.123 35.7244C110.119 36.4585 110.043 37.2367 109.086 37.5461ZM107.695 34.8625C107.31 34.7584 107.193 34.9478 107.223 35.3551C107.254 35.8034 107.223 36.2548 107.232 36.7047C107.232 36.8452 107.169 37.0694 107.421 37.0441C107.78 37.0078 108.226 37.112 108.445 36.7489C108.577 36.5225 108.651 36.2672 108.662 36.0052C108.673 35.7432 108.619 35.4826 108.506 35.2461C108.363 34.8988 108.072 34.8468 107.695 34.861V34.8625Z" fill="#5E6162"/>
<path d="M71.1787 37.5682C72.3501 37.7892 72.3281 38.6101 72.3265 39.4325C72.3265 39.9187 72.2588 40.4096 72.4131 40.8927C72.4887 41.1263 72.3895 41.2226 72.1187 41.24C70.8858 41.3173 70.8937 41.3284 70.8811 40.0687C70.8811 39.603 70.9614 39.1215 70.7772 38.6716C70.6772 38.4566 70.5015 38.2862 70.2838 38.1933C70.0661 38.1003 69.8218 38.0913 69.5979 38.1681C69.3869 38.2612 69.4829 38.438 69.4813 38.5738C69.4703 39.3409 69.464 40.1066 69.4813 40.8722C69.4813 41.1531 69.4026 41.2289 69.1192 41.2384C67.9399 41.281 67.9399 41.2921 67.9399 40.105C67.9399 38.1412 67.9509 36.1759 67.9304 34.2122C67.9304 33.8128 68.0107 33.6629 68.4406 33.685C69.2609 33.7229 70.0875 33.6629 70.9047 33.7955C71.5455 33.9012 72.0699 34.1822 72.2053 34.8594C72.4635 36.1491 72.3753 37.1752 71.1787 37.5682ZM69.4766 35.9407C69.4884 36.1558 69.4884 36.3713 69.4766 36.5864C69.4309 36.9778 69.5679 37.1262 69.9663 37.0315C70.2812 36.9557 70.6622 37.0031 70.7646 36.5801C70.8937 36.0465 70.9708 35.5035 70.5725 35.041C70.319 34.7473 69.9427 34.82 69.6372 34.8831C69.3318 34.9462 69.5301 35.273 69.4876 35.4766C69.4684 35.6306 69.4647 35.7861 69.4766 35.9407Z" fill="#5E6162"/>
<path d="M54.5797 37.172C54.625 37.9938 54.596 38.818 54.4931 39.6346C54.3262 40.8974 53.4776 41.3994 52.0132 41.3299C50.6261 41.2636 50.0876 40.6117 49.9994 39.2257C49.9136 37.9338 49.9136 36.6375 49.9994 35.3456C50.0624 34.4379 50.6891 33.7465 51.6149 33.6834C52.0447 33.6534 52.4762 33.6534 52.906 33.6834C53.8744 33.7497 54.4931 34.449 54.5719 35.5777C54.6097 36.1096 54.5797 36.6416 54.5797 37.172ZM53.0934 37.4577C52.9973 36.7726 53.1926 36.037 52.969 35.3298C52.8462 34.9383 52.6005 34.7379 52.2053 34.7473C51.8101 34.7568 51.6243 34.9841 51.5362 35.3551C51.3204 36.2659 51.459 37.1862 51.4322 38.1018C51.4196 38.5848 51.3834 39.0726 51.5314 39.5556C51.6479 39.9361 51.8243 40.165 52.2494 40.1713C52.6745 40.1776 52.8698 39.996 52.9784 39.5919C53.169 38.8926 53.0115 38.1886 53.0934 37.4577Z" fill="#5E6162"/>
<path d="M60.5096 36.7662C60.5096 37.6107 60.5096 38.4552 60.5096 39.2919C60.5096 39.9012 60.741 40.1585 61.2653 40.1601C61.7897 40.1617 62.0353 39.8949 62.0384 39.2998C62.0384 37.6296 62.0605 35.9595 62.029 34.291C62.029 33.8064 62.1392 33.6596 62.6368 33.6738C63.572 33.7148 63.5815 33.6832 63.5815 34.5957C63.5815 35.9706 63.5941 37.3455 63.5815 38.7204C63.5725 39.1483 63.5197 39.5741 63.424 39.9912C63.1564 41.1861 61.955 41.4466 60.8953 41.3014C59.5113 41.1135 59.0563 40.6857 58.9964 39.0093C58.9397 37.4008 58.9964 35.789 58.9775 34.1773C58.9775 33.8111 59.0421 33.669 59.4499 33.6754C60.5174 33.6911 60.5174 33.6754 60.5174 34.7535L60.5096 36.7662Z" fill="#5E6162"/>
<path d="M116.722 33.7244C117.469 33.4971 117.658 33.8965 117.791 34.5484C118.226 36.6842 118.725 38.8106 119.199 40.9337C119.216 41.0079 119.256 41.1421 119.24 41.1484C118.853 41.3189 118.44 41.1926 118.04 41.2289C117.812 41.251 117.725 41.1373 117.725 40.9132C117.73 40.8346 117.726 40.7557 117.713 40.678C117.494 39.5588 117.492 39.573 116.338 39.573C115.984 39.573 115.789 39.6251 115.822 40.0466C115.837 40.2486 115.719 40.4523 115.711 40.678C115.694 41.0647 115.554 41.281 115.066 41.2557C114.121 41.2068 114.121 41.2415 114.312 40.3339C114.74 38.3749 115.203 36.4222 115.597 34.4553C115.74 33.7418 116.081 33.5445 116.722 33.7244ZM116.757 35.3819L116.662 35.333C116.474 36.3669 116.283 37.4025 116.083 38.4901C116.283 38.4798 116.483 38.4798 116.683 38.4901C117.236 38.5517 117.33 38.3796 117.182 37.8287C116.968 37.0378 116.889 36.2012 116.757 35.3819Z" fill="#5E6162"/>
<path d="M122.243 33.7197C124.173 33.6929 123.63 33.404 123.975 35.131C124.26 36.5359 124.482 37.9534 124.762 39.5304C124.992 38.2313 125.198 37.0805 125.392 35.9281C125.488 35.3725 125.565 34.8137 125.653 34.258C125.718 33.8602 125.856 33.6376 126.359 33.6771C127.19 33.7434 127.209 33.6976 127.045 34.5106C126.615 36.6301 126.175 38.748 125.727 40.8643C125.678 41.0995 125.57 41.2384 125.255 41.2431C123.899 41.2652 123.871 41.2889 123.581 39.9992C123.115 37.9124 122.687 35.8176 122.243 33.7197Z" fill="#5E6162"/>
<path d="M133.176 41.2305C132.685 41.2305 132.192 41.2179 131.702 41.2305C131.421 41.24 131.285 41.1958 131.288 40.8579C131.304 38.5974 131.304 36.3348 131.288 34.0701C131.288 33.7544 131.381 33.6692 131.69 33.6755C132.652 33.6944 133.616 33.7007 134.579 33.6755C135.162 33.6597 134.924 34.0701 134.948 34.3259C134.971 34.5816 135.07 34.8973 134.589 34.8563C134.159 34.8184 133.724 34.8673 133.293 34.842C132.959 34.8231 132.82 34.8815 132.82 35.2762C132.82 36.8026 132.797 36.8026 134.329 36.8058C134.899 36.8058 135.171 37.2415 134.959 37.7829C134.911 37.9029 134.834 37.9139 134.735 37.9155C134.636 37.9171 134.499 37.9155 134.382 37.9155C133.879 37.9502 133.101 37.6945 132.934 38.0118C132.682 38.4854 132.855 39.191 132.835 39.7956C132.825 40.086 133.022 40.0355 133.192 40.0371C133.702 40.0371 134.215 40.0592 134.724 40.0371C135.274 40.0071 135.063 40.4033 135.067 40.6385C135.072 40.8737 135.258 41.2699 134.715 41.2305C134.2 41.2052 133.686 41.2305 133.176 41.2305Z" fill="#5E6162"/>
<path d="M43.4021 38.0134C43.4021 37.0915 43.3895 36.1696 43.4021 35.2477C43.4021 34.9415 43.3249 34.8184 43.0116 34.8547C42.8179 34.8783 42.6148 34.831 42.4243 34.8641C41.8559 34.9636 41.6795 34.7505 41.7268 34.179C41.7567 33.8081 41.8197 33.6771 42.218 33.685C43.4777 33.7118 44.7373 33.7244 45.9828 33.685C46.5244 33.666 46.4709 33.958 46.4661 34.299C46.4661 34.6068 46.5433 34.891 46.0237 34.8799C44.9026 34.8515 44.9026 34.8799 44.9026 35.9849C44.9026 37.5745 44.89 39.1641 44.9121 40.7522C44.9121 41.1405 44.8082 41.2463 44.4208 41.2415C43.3958 41.2273 43.3958 41.2415 43.3958 40.2502L43.4021 38.0134Z" fill="#5E6162"/>
<path d="M98.6151 38.0133C98.6151 37.0914 98.6041 36.1695 98.6151 35.2476C98.6151 34.943 98.538 34.8183 98.2247 34.8546C98.031 34.8783 97.8279 34.8309 97.6374 34.864C97.0689 34.9635 96.8926 34.7504 96.9383 34.1789C96.9682 33.8048 97.039 33.677 97.4327 33.6849C98.7081 33.7085 99.9834 33.718 101.257 33.6849C101.868 33.6675 101.638 34.0748 101.674 34.3542C101.719 34.6794 101.685 34.883 101.237 34.8751C100.116 34.8546 100.114 34.883 100.114 35.9801C100.114 37.5697 100.102 39.1593 100.114 40.7473C100.114 41.1357 100.015 41.243 99.626 41.2383C98.601 41.2241 98.5994 41.2383 98.5994 40.2469L98.6151 38.0133Z" fill="#5E6162"/>
<path d="M139.323 37.4561C139.323 36.3763 139.34 35.2966 139.323 34.2168C139.312 33.8191 139.402 33.6738 139.832 33.6833C140.86 33.7038 140.861 33.6833 140.861 34.6888C140.861 36.3179 140.874 37.9486 140.852 39.5824C140.852 39.9707 140.954 40.1017 141.339 40.0559C141.63 40.0244 141.931 40.078 142.22 40.0433C142.677 39.9881 142.798 40.1475 142.811 40.6116C142.825 41.1357 142.675 41.273 142.164 41.243C141.361 41.1957 140.553 41.2146 139.748 41.243C139.416 41.2525 139.318 41.153 139.325 40.8184C139.336 39.696 139.323 38.5753 139.323 37.4561Z" fill="#5E6162"/>
</g>
<defs>
<clipPath id="clip0_645_1339">
<rect width="151" height="43" fill="white"/>
</clipPath>
</defs>
</svg>
