<svg width="33" height="32" viewBox="0 0 33 32" fill="none" xmlns="http://www.w3.org/2000/svg">
<g id="Icon" clip-path="url(#clip0_182_10675)">
<path id="Vector" d="M24.5459 24.2651C24.7122 23.974 24.9409 23.9116 25.232 24.078C25.5231 24.2443 25.5855 24.473 25.4192 24.7641C24.2548 26.9682 22.6018 28.7148 20.4601 30.0039C18.3184 31.293 16.0001 31.9376 13.5049 31.9376C9.80383 31.9376 6.63294 30.6173 3.99226 27.9766C1.35159 25.3359 0.03125 22.165 0.03125 18.4639C0.03125 15.9272 0.696617 13.5776 2.02735 11.4152C2.06894 11.2489 2.13131 11.1241 2.21449 11.0409C2.50558 10.6251 2.81747 10.23 3.15016 9.85575C3.35809 9.60624 3.58681 9.58545 3.83632 9.79337C4.08583 10.0013 4.10662 10.23 3.8987 10.4795C3.77394 10.6459 3.64918 10.8122 3.52443 10.9786H5.39577C5.47894 10.9786 5.56211 10.9786 5.64529 10.9786H9.76224C10.2197 8.77453 10.8435 7.1527 11.6336 6.11306C11.2593 6.19623 10.9162 6.26901 10.6043 6.33138C10.2925 6.39376 10.0949 6.26901 10.0118 5.95712C9.92859 5.64522 10.0533 5.44769 10.386 5.36452C11.4257 5.11501 12.4653 4.99025 13.5049 4.99025C15.9585 4.99025 18.2457 5.61403 20.3665 6.8616C22.1547 7.90123 23.631 9.29435 24.7954 11.0409C24.8786 11.1241 24.9409 11.2489 24.9825 11.4152C25.0657 11.54 25.1281 11.6439 25.1697 11.7271C25.336 12.0182 25.2736 12.2469 24.9825 12.4133C24.8993 12.4548 24.8162 12.4756 24.733 12.4756C24.5667 12.4756 24.4211 12.3925 24.2964 12.2261C24.2964 12.1845 24.2548 12.1014 24.1716 11.9766H22.2379C22.4458 12.434 22.6121 12.8915 22.7369 13.3489C22.8201 13.64 22.7161 13.848 22.425 13.9727C22.3834 13.9727 22.321 13.9727 22.2379 13.9727C21.9884 13.9727 21.8428 13.848 21.8012 13.5984C21.6349 13.0578 21.427 12.5172 21.1774 11.9766H17.4348C17.7674 13.848 17.9546 15.8441 17.9962 17.9649H20.4913C20.824 17.9649 20.9903 18.1313 20.9903 18.4639C20.9903 18.7966 20.824 18.963 20.4913 18.963H17.9962C17.9546 20.8759 17.809 22.7057 17.5595 24.4522H21.3646C21.6557 23.7869 21.8844 23.0799 22.0507 22.3314C22.1339 21.9987 22.3314 21.8739 22.6433 21.9571C22.9552 22.0403 23.0696 22.2482 22.9864 22.5809C22.8617 23.2047 22.6745 23.8285 22.425 24.4522H24.4211C24.4627 24.3691 24.5043 24.3067 24.5459 24.2651ZM20.9279 25.4503H17.3724C16.9149 27.7791 16.2912 29.5049 15.501 30.6277C16.707 30.2534 17.809 29.5673 18.8071 28.5692C19.6388 27.6959 20.3457 26.6563 20.9279 25.4503ZM17.2476 10.9786H20.6784C19.3893 8.5666 17.6635 7.00715 15.501 6.3002C16.2496 7.33983 16.8318 8.89929 17.2476 10.9786ZM19.8051 7.73489C19.5972 7.61014 19.3685 7.48538 19.119 7.36062C20.2002 8.31709 21.0943 9.52307 21.8012 10.9786H23.4854C22.4874 9.64782 21.2606 8.5666 19.8051 7.73489ZM11.4465 8.67056C11.1969 9.33593 10.9682 10.1053 10.7603 10.9786H16.2496C16.1248 10.4379 16.0001 9.91813 15.8753 9.4191C15.1684 7.1319 14.3782 5.9883 13.5049 5.9883C12.7564 5.9883 12.0702 6.88239 11.4465 8.67056ZM10.0741 15.9688C10.0741 16.3015 9.90779 16.4678 9.57511 16.4678C9.24243 16.4678 9.07608 16.3015 9.07608 15.9688C9.15926 14.5549 9.3048 13.2242 9.51273 11.9766H5.83242C5.0423 13.8064 4.60565 15.8025 4.52248 17.9649H5.52053C5.85321 17.9649 6.01955 18.1313 6.01955 18.4639C6.01955 18.7966 5.85321 18.963 5.52053 18.963H4.52248C4.56406 20.9175 4.93833 22.7472 5.64529 24.4522H6.01955C6.35224 24.4522 6.51858 24.6186 6.51858 24.9513C6.51858 25.2424 6.37303 25.4087 6.08193 25.4503C7.41267 28.1533 9.22163 29.8791 11.5088 30.6277C11.1346 30.1287 10.8227 29.5049 10.5732 28.7563C10.4484 28.4652 10.542 28.2573 10.8539 28.1326C11.1658 28.0078 11.3633 28.1118 11.4465 28.4444C12.1118 30.1079 12.798 30.9396 13.5049 30.9396C14.3782 30.9396 15.1684 29.796 15.8753 27.5088C16.0416 26.885 16.208 26.1988 16.3743 25.4503H14.503C14.1703 25.4503 14.004 25.284 14.004 24.9513C14.004 24.6186 14.1703 24.4522 14.503 24.4522H16.5615C16.811 22.7472 16.9565 20.9175 16.9981 18.963H14.503C14.1703 18.963 14.004 18.7966 14.004 18.4639C14.004 18.1313 14.1703 17.9649 14.503 17.9649H16.9981C16.9565 15.8025 16.7694 13.8064 16.4367 11.9766H10.5732C10.3236 13.2242 10.1573 14.5549 10.0741 15.9688ZM1.0293 18.963C1.11247 20.9175 1.63229 22.7472 2.58875 24.4522H4.58486C3.91949 22.7472 3.56601 20.9175 3.52443 18.963H1.0293ZM4.77199 11.9766H2.83827C1.71546 13.8064 1.11247 15.8025 1.0293 17.9649H3.52443C3.56601 15.8441 3.98187 13.848 4.77199 11.9766ZM3.15016 25.4503C4.35614 27.2385 5.93638 28.6108 7.8909 29.5673C7.35029 29.1098 6.85126 28.5692 6.39382 27.9454C5.85321 27.1969 5.37498 26.3652 4.95913 25.4503H3.15016ZM19.119 29.6296C21.0735 28.6316 22.6537 27.2385 23.8597 25.4503H22.0507C21.3854 26.9474 20.5329 28.2157 19.4932 29.2554C19.3685 29.3801 19.2437 29.5049 19.119 29.6296ZM5.20864 9.91813C4.91754 9.66862 4.56406 9.36712 4.14821 9.01365C3.73235 8.66017 3.19174 7.97401 2.52638 6.95517C1.86101 5.93632 1.52833 4.94867 1.52833 3.9922C1.52833 2.91098 1.92339 1.97531 2.71351 1.18518C3.50363 0.395061 4.43931 0 5.52053 0C6.60175 0 7.53742 0.395061 8.32755 1.18518C9.11767 1.97531 9.51273 2.91098 9.51273 3.9922C9.51273 4.90708 9.18005 5.87394 8.51468 6.89279C7.84931 7.91163 7.3087 8.60819 6.89285 8.98246C6.47699 9.35673 6.12352 9.64782 5.83242 9.85575C5.74925 9.93892 5.64529 9.98051 5.52053 9.98051C5.39577 9.98051 5.29181 9.95971 5.20864 9.91813ZM7.64139 1.87135C7.64139 1.87135 7.49584 1.7258 7.20474 1.4347C6.91364 1.1436 6.35224 0.998051 5.52053 0.998051C4.68882 0.998051 3.98187 1.28915 3.39967 1.87135C2.81747 2.45354 2.52638 3.16049 2.52638 3.9922C2.52638 5.61403 3.52443 7.23587 5.52053 8.8577C7.51663 7.19428 8.51468 5.57245 8.51468 3.9922C8.51468 3.16049 8.22358 2.45354 7.64139 1.87135ZM7.51663 3.9922C7.51663 4.53281 7.3191 5.00065 6.92404 5.39571C6.52898 5.79077 6.06114 5.9883 5.52053 5.9883C4.97992 5.9883 4.51208 5.79077 4.11702 5.39571C3.72196 5.00065 3.52443 4.53281 3.52443 3.9922C3.52443 3.45159 3.72196 2.98376 4.11702 2.58869C4.51208 2.19363 4.97992 1.9961 5.52053 1.9961C5.85321 1.9961 6.01955 2.16244 6.01955 2.49513C6.01955 2.82781 5.85321 2.99415 5.52053 2.99415C5.22943 2.99415 4.99031 3.08772 4.80318 3.27485C4.61605 3.46199 4.52248 3.70111 4.52248 3.9922C4.52248 4.2833 4.61605 4.52242 4.80318 4.70955C4.99031 4.89669 5.22943 4.99025 5.52053 4.99025C5.81163 4.99025 6.05074 4.89669 6.23788 4.70955C6.42501 4.52242 6.51858 4.2833 6.51858 3.9922C6.51858 3.65952 6.68492 3.49318 7.0176 3.49318C7.35029 3.49318 7.51663 3.65952 7.51663 3.9922ZM22.6745 14.6589C22.6745 14.6589 22.8721 14.4613 23.2671 14.0663C23.6622 13.6712 24.4003 13.4737 25.4815 13.4737C26.5628 13.4737 27.4984 13.8687 28.2886 14.6589C29.0787 15.449 29.4737 16.3847 29.4737 17.4659C29.4737 18.3808 29.1411 19.3476 28.4757 20.3665C27.8103 21.3853 27.2697 22.0819 26.8539 22.4561C26.438 22.8304 26.0845 23.1215 25.7934 23.3294C25.7103 23.4126 25.6063 23.4542 25.4815 23.4542C25.3568 23.4542 25.2528 23.4334 25.1697 23.3918C24.8786 23.1423 24.5251 22.8408 24.1092 22.4873C23.6934 22.1339 23.1528 21.4477 22.4874 20.4289C21.822 19.41 21.4893 18.4224 21.4893 17.4659C21.4893 16.3847 21.8844 15.449 22.6745 14.6589ZM25.4815 22.3314C27.4776 20.668 28.4757 19.0461 28.4757 17.4659C28.4757 16.6342 28.1846 15.9272 27.6024 15.345C27.0202 14.7628 26.3133 14.4717 25.4815 14.4717C24.6498 14.4717 23.9429 14.7628 23.3607 15.345C22.7785 15.9272 22.4874 16.6342 22.4874 17.4659C22.4874 19.0877 23.4854 20.7096 25.4815 22.3314ZM26.4796 17.4659C26.4796 17.1332 26.6459 16.9669 26.9786 16.9669C27.3113 16.9669 27.4776 17.1332 27.4776 17.4659C27.4776 18.0065 27.2801 18.4743 26.8851 18.8694C26.49 19.2645 26.0222 19.462 25.4815 19.462C24.9409 19.462 24.4731 19.2645 24.078 18.8694C23.683 18.4743 23.4854 18.0065 23.4854 17.4659C23.4854 16.9253 23.683 16.4574 24.078 16.0624C24.4731 15.6673 24.9409 15.4698 25.4815 15.4698C25.8142 15.4698 25.9806 15.6361 25.9806 15.9688C25.9806 16.3015 25.8142 16.4678 25.4815 16.4678C25.1904 16.4678 24.9513 16.5614 24.7642 16.7485C24.5771 16.9357 24.4835 17.1748 24.4835 17.4659C24.4835 17.757 24.5771 17.9961 24.7642 18.1832C24.9513 18.3704 25.1904 18.4639 25.4815 18.4639C25.7726 18.4639 26.0118 18.3704 26.1989 18.1832C26.386 17.9961 26.4796 17.757 26.4796 17.4659ZM6.01955 21.4581C6.01955 20.3769 6.41462 19.4412 7.20474 18.6511C7.99486 17.8609 8.93054 17.4659 10.0118 17.4659C11.093 17.4659 12.0287 17.8609 12.8188 18.6511C13.6089 19.4412 14.004 20.3769 14.004 21.4581C14.004 22.373 13.6713 23.3398 13.0059 24.3587C12.3405 25.3775 11.7999 26.0741 11.3841 26.4483C10.9682 26.8226 10.6147 27.1137 10.3236 27.3216C10.2405 27.4048 10.1365 27.4464 10.0118 27.4464C9.887 27.4464 9.78304 27.4256 9.69987 27.384C9.40877 27.1345 9.05529 26.833 8.63944 26.4795C8.22358 26.1261 7.68297 25.4399 7.0176 24.4211C6.35224 23.4022 6.01955 22.4146 6.01955 21.4581ZM12.1326 19.3372C12.1326 19.3372 11.9871 19.1917 11.696 18.9006C11.4049 18.6095 10.8435 18.4639 10.0118 18.4639C9.18005 18.4639 8.47309 18.755 7.8909 19.3372C7.3087 19.9194 7.0176 20.6264 7.0176 21.4581C7.0176 23.0799 8.01566 24.7018 10.0118 26.3236C12.0079 24.6602 13.0059 23.0383 13.0059 21.4581C13.0059 20.6264 12.7148 19.9194 12.1326 19.3372ZM11.4153 22.8616C11.4153 22.8616 11.3165 22.9604 11.119 23.1579C10.9214 23.3554 10.5524 23.4542 10.0118 23.4542C9.47115 23.4542 9.00331 23.2567 8.60825 22.8616C8.21319 22.4665 8.01566 21.9987 8.01566 21.4581C8.01566 20.9175 8.21319 20.4496 8.60825 20.0546C9.00331 19.6595 9.47115 19.462 10.0118 19.462C10.3444 19.462 10.5108 19.6283 10.5108 19.961C10.5108 20.2937 10.3444 20.46 10.0118 20.46C9.72066 20.46 9.48154 20.5536 9.29441 20.7407C9.10727 20.9279 9.01371 21.167 9.01371 21.4581C9.01371 21.7492 9.10727 21.9883 9.29441 22.1754C9.48154 22.3626 9.72066 22.4561 10.0118 22.4561C10.3029 22.4561 10.542 22.3626 10.7291 22.1754C10.9162 21.9883 11.0098 21.7492 11.0098 21.4581C11.0098 21.1254 11.1761 20.9591 11.5088 20.9591C11.8415 20.9591 12.0079 21.1254 12.0079 21.4581C12.0079 21.9987 11.8103 22.4665 11.4153 22.8616Z" fill="#A9B5C1"/>
</g>
<defs>
<clipPath id="clip0_182_10675">
<rect width="32.2" height="32" fill="white" transform="matrix(1 0 0 -1 0 32)"/>
</clipPath>
</defs>
</svg>
