<svg width="33" height="32" viewBox="0 0 33 32" fill="none" xmlns="http://www.w3.org/2000/svg">
<g id="Icon" clip-path="url(#clip0_182_10685)">
<path id="Vector" d="M13.4738 1.4347C13.4322 1.01885 13.609 0.790129 14.004 0.748543C14.3991 0.706957 14.6174 0.873299 14.659 1.24757L15.5947 7.92203C15.6778 8.2963 15.5115 8.52502 15.0956 8.60819C15.0956 8.60819 15.0748 8.60819 15.0333 8.60819C14.7006 8.60819 14.5134 8.44185 14.4719 8.10917L13.4738 1.4347ZM29.1931 3.68032L28.7565 3.24367C28.4654 2.95257 28.455 2.67187 28.7253 2.40156C28.9956 2.13126 29.2763 2.12086 29.5674 2.37037L30.0664 2.8694L30.503 2.37037C30.7941 2.12086 31.0748 2.13126 31.3452 2.40156C31.6155 2.67187 31.6259 2.95257 31.3763 3.24367L30.8773 3.68032L31.3763 4.17934C31.6259 4.47044 31.6259 4.74075 31.3763 4.99026C31.2516 5.11502 31.106 5.17739 30.9397 5.17739C30.7734 5.17739 30.6278 5.11502 30.503 4.99026L30.0664 4.55361L29.5674 4.99026C29.2763 5.28136 28.9956 5.29175 28.7253 5.02145C28.455 4.75114 28.4654 4.47044 28.7565 4.17934L29.1931 3.68032ZM11.9144 11.4152L6.67459 4.55361C6.42507 4.26251 6.45626 3.99221 6.76815 3.74269C7.08004 3.49318 7.36075 3.53477 7.61026 3.86745L12.85 10.729C13.0995 11.0201 13.058 11.2905 12.7253 11.54C12.6421 11.6231 12.5381 11.6647 12.4134 11.6647C12.2055 11.6647 12.0391 11.5816 11.9144 11.4152ZM2.12098 5.86355C1.82988 5.61404 1.79869 5.33334 2.02741 5.02145C2.25613 4.70956 2.53683 4.67837 2.86952 4.92788L3.05665 5.05264C3.38934 5.30215 3.43092 5.59325 3.18141 5.92593C3.05665 6.09227 2.89031 6.17544 2.68238 6.17544C2.55763 6.17544 2.43287 6.13386 2.30811 6.05069L2.12098 5.86355ZM1.62195 13.2242L7.73501 14.0351C8.10928 14.1183 8.27563 14.347 8.23404 14.7213C8.19245 15.0539 8.00532 15.2203 7.67264 15.2203C7.63105 15.2203 7.58947 15.2203 7.54788 15.2203L1.4972 14.4094C1.08134 14.3678 0.904605 14.1495 0.966984 13.7544C1.02936 13.3593 1.24769 13.1826 1.62195 13.2242ZM4.0547 7.36063C3.7636 7.11112 3.74281 6.83041 3.99232 6.51852C4.24184 6.20663 4.51214 6.17544 4.80324 6.42496L10.6044 10.8538C10.8955 11.1033 10.9371 11.3944 10.7292 11.7271C10.6044 11.8519 10.4381 11.9142 10.2301 11.9142C10.1054 11.9142 9.98063 11.8726 9.85587 11.7895L4.0547 7.36063ZM16.9046 8.67057C16.4888 8.5874 16.3224 8.35868 16.4056 7.98441L17.2789 1.24757C17.362 0.873299 17.5908 0.706957 17.965 0.748543C18.3393 0.790129 18.5056 1.01885 18.4641 1.4347L17.5908 8.17155C17.5076 8.50423 17.2997 8.67057 16.967 8.67057C16.9254 8.67057 16.9046 8.67057 16.9046 8.67057ZM30.4407 17.0916C30.8565 17.1332 31.0437 17.3411 31.0021 17.7154C30.9605 18.0897 30.7526 18.2768 30.3783 18.2768C30.3783 18.2768 30.3575 18.2768 30.3159 18.2768L22.1444 17.154C21.7701 17.1124 21.6038 16.8941 21.6453 16.499C21.6869 16.104 21.9157 15.9272 22.3315 15.9688L30.4407 17.0916ZM30.3159 13.2866C30.6902 13.245 30.9085 13.4217 30.9709 13.8168C31.0333 14.2118 30.8565 14.4302 30.4407 14.4717L24.3276 15.2827C24.3276 15.2827 24.3068 15.2827 24.2652 15.2827C23.9325 15.2827 23.7454 15.0955 23.7038 14.7213C23.6207 14.347 23.787 14.1391 24.2029 14.0975L30.3159 13.2866ZM27.1346 6.42496C27.4673 6.17544 27.7584 6.21703 28.0079 6.54971C28.2574 6.88239 28.2158 7.1527 27.8832 7.36063L22.1444 11.7895C22.0196 11.8726 21.8949 11.9142 21.7701 11.9142C21.5622 11.9142 21.3958 11.8311 21.2711 11.6647C21.0216 11.3736 21.0632 11.1033 21.3958 10.8538L27.1346 6.42496ZM25.5752 3.24367C25.2425 3.03574 25.2009 2.76544 25.4504 2.43275L25.5128 2.37037C25.7623 2.03769 26.043 1.99611 26.3549 2.24562C26.6668 2.49513 26.698 2.78623 26.4485 3.11891L26.3861 3.18129C26.2613 3.30605 26.1158 3.36843 25.9494 3.36843C25.7831 3.36843 25.6583 3.32684 25.5752 3.24367ZM26.6356 1.87135C26.3029 1.62184 26.2613 1.35153 26.5108 1.06043L26.5732 0.998055C26.8227 0.665371 27.1034 0.623787 27.4153 0.873299C27.7272 1.12281 27.7584 1.39312 27.5089 1.68422L27.4465 1.80897C27.3218 1.93373 27.1762 1.99611 27.0099 1.99611C26.8435 1.99611 26.7188 1.95452 26.6356 1.87135ZM19.2126 11.54C18.9215 11.2905 18.9007 10.9994 19.1502 10.6667L24.39 3.86745C24.5979 3.53477 24.8682 3.49318 25.2009 3.74269C25.5336 3.99221 25.5752 4.28331 25.3257 4.61599L20.0859 11.4152C19.9611 11.5816 19.7948 11.6647 19.5869 11.6647C19.4621 11.6647 19.3374 11.6231 19.2126 11.54ZM1.24769 4.42885C1.12293 4.5952 0.956587 4.67837 0.74866 4.67837C0.623904 4.67837 0.499147 4.63678 0.374391 4.55361L0.312013 4.42885C-0.0206708 4.22093 -0.0622562 3.95062 0.187256 3.61794C0.436769 3.28526 0.707075 3.24367 0.998173 3.49318L1.12293 3.61794C1.45561 3.82586 1.4972 4.09617 1.24769 4.42885ZM19.774 20.3977C19.8572 20.6472 19.7844 20.8551 19.5557 21.0214C19.327 21.1878 19.0878 21.1878 18.8383 21.0214L16.0937 19.1501L13.0995 21.0214C12.9748 21.1046 12.85 21.1462 12.7253 21.1462C12.6005 21.1462 12.4965 21.1046 12.4134 21.0214C12.2055 20.8551 12.1223 20.6472 12.1639 20.3977L13.0995 17.154L10.3549 14.846C10.147 14.6797 10.095 14.4717 10.199 14.2222C10.3029 13.9727 10.4797 13.8272 10.7292 13.7856L14.0976 13.6608L15.4075 10.4172C15.5323 10.1676 15.7298 10.0429 16.0001 10.0429C16.2704 10.0429 16.4472 10.1676 16.5303 10.4172L17.7155 13.5361L21.2087 13.7856C21.4998 13.8272 21.6869 13.9727 21.7701 14.2222C21.8533 14.4717 21.7909 14.6797 21.583 14.846L18.9007 16.9669L19.774 20.3977ZM17.9027 16.2807L19.5869 14.9084L17.2165 14.7213C16.967 14.6797 16.8006 14.5549 16.7175 14.347L15.9689 12.2885L15.0333 14.4717C14.9501 14.7213 14.7837 14.846 14.5342 14.846L12.351 14.9084L14.16 16.4678C14.3679 16.6342 14.4303 16.8421 14.3471 17.0916L13.7233 19.2125L15.7818 17.9649C15.9897 17.8402 16.1977 17.8402 16.4056 17.9649L18.2769 19.2125L17.6531 16.8421C17.6116 16.5926 17.6947 16.4055 17.9027 16.2807ZM27.7584 30.1287L27.8208 30.2534C28.0703 30.5445 28.0287 30.8148 27.696 31.0643C27.6129 31.1475 27.5089 31.1891 27.3841 31.1891C27.1762 31.1891 27.0099 31.1059 26.8851 30.9396L26.8227 30.8772C26.5732 30.5445 26.6044 30.2534 26.9163 30.0039C27.2282 29.7544 27.5089 29.796 27.7584 30.1287ZM1.62195 11.54C1.37244 11.8311 1.10214 11.8311 0.811038 11.54C0.51994 11.2489 0.51994 10.9786 0.811038 10.729L1.24769 10.23L0.811038 9.79338C0.51994 9.50228 0.51994 9.21118 0.811038 8.92008C1.10214 8.62898 1.37244 8.62898 1.62195 8.92008L2.12098 9.41911L2.55763 8.92008C2.84873 8.62898 3.13982 8.62898 3.43092 8.92008C3.72202 9.21118 3.72202 9.50228 3.43092 9.79338L2.9319 10.23L3.43092 10.729C3.72202 10.9786 3.72202 11.2489 3.43092 11.54C3.30616 11.6647 3.16062 11.7271 2.99427 11.7271C2.82793 11.7271 2.68238 11.6647 2.55763 11.54L2.12098 11.1033L1.62195 11.54ZM26.5732 28.6316C26.8227 28.9643 26.8019 29.2346 26.5108 29.4425C26.3861 29.5257 26.2613 29.5673 26.1366 29.5673C25.9286 29.5673 25.7623 29.5049 25.6376 29.3801L25.5752 29.2554C25.3257 28.9227 25.3568 28.642 25.6687 28.4133C25.9806 28.1845 26.2613 28.2157 26.5108 28.5068L26.5732 28.6316ZM31.3763 21.77L31.813 22.2066C32.1041 22.4977 32.1041 22.7888 31.813 23.0799C31.6882 23.1631 31.5427 23.2047 31.3763 23.2047C31.21 23.2047 31.0852 23.1631 31.0021 23.0799L30.503 22.5809L30.0664 23.0799C29.7753 23.3294 29.4842 23.319 29.1931 23.0487C28.902 22.7784 28.902 22.4977 29.1931 22.2066L29.6921 21.77L29.1931 21.271C28.902 20.9799 28.902 20.6992 29.1931 20.4289C29.4842 20.1585 29.7753 20.1689 30.0664 20.46L30.503 20.8967L31.0021 20.46C31.2516 20.1689 31.5219 20.1585 31.813 20.4289C32.1041 20.6992 32.1041 20.9799 31.813 21.271L31.3763 21.77ZM27.8832 24.1404C28.1743 24.3899 28.2158 24.6602 28.0079 24.9513C27.8832 25.1176 27.7168 25.2008 27.5089 25.2008C27.3841 25.2008 27.2594 25.1592 27.1346 25.076L21.583 20.8343C21.2919 20.5848 21.2607 20.3041 21.4894 19.9922C21.7181 19.6803 21.9988 19.6491 22.3315 19.8986L27.8832 24.1404ZM22.3315 23.0799L25.2633 26.9474C25.5128 27.2385 25.492 27.5088 25.2009 27.7583C25.0761 27.8415 24.9514 27.883 24.8266 27.883C24.6187 27.883 24.4524 27.7999 24.3276 27.6335L21.3958 23.7661C21.1463 23.475 21.1775 23.2047 21.4894 22.9552C21.8013 22.7057 22.082 22.7472 22.3315 23.0799ZM9.66874 19.8363C9.95984 19.5867 10.2301 19.6179 10.4797 19.9298C10.7292 20.2417 10.6876 20.5224 10.3549 20.7719L4.80324 25.076C4.67848 25.1592 4.55373 25.2008 4.42897 25.2008C4.22104 25.2008 4.0547 25.1176 3.92995 24.9513C3.72202 24.6602 3.7636 24.3899 4.0547 24.1404L9.66874 19.8363ZM3.61806 27.8207C3.86757 27.5712 4.13787 27.5815 4.42897 27.8519C4.72007 28.1222 4.72007 28.4029 4.42897 28.694L3.99232 29.1306L4.42897 29.6296C4.72007 29.9207 4.72007 30.191 4.42897 30.4405C4.30422 30.5653 4.15867 30.6277 3.99232 30.6277C3.82598 30.6277 3.70123 30.5653 3.61806 30.4405L3.11903 30.0039L2.68238 30.4405C2.39129 30.7316 2.10019 30.742 1.80909 30.4717C1.51799 30.2014 1.51799 29.9207 1.80909 29.6296L2.30811 29.1306L1.80909 28.694C1.51799 28.4029 1.51799 28.1222 1.80909 27.8519C2.10019 27.5815 2.39129 27.5712 2.68238 27.8207L3.11903 28.3197L3.61806 27.8207ZM9.60636 15.9688C9.98063 15.9272 10.199 16.104 10.2613 16.499C10.3237 16.8941 10.147 17.1124 9.73112 17.154L1.62195 18.2144C1.62195 18.2144 1.60116 18.2144 1.55958 18.2144C1.22689 18.2144 1.03976 18.0481 0.998173 17.7154C0.915002 17.3411 1.08134 17.1124 1.4972 17.0292L9.60636 15.9688ZM17.5908 23.4542L18.4641 30.191C18.5056 30.6069 18.3393 30.8356 17.965 30.8772C17.9235 30.8772 17.9027 30.8772 17.9027 30.8772C17.5284 30.8772 17.3205 30.7109 17.2789 30.3782L16.4056 23.6413C16.3224 23.2671 16.4784 23.0487 16.8734 22.9864C17.2685 22.924 17.5076 23.0799 17.5908 23.4542ZM14.4719 23.5166C14.5134 23.1423 14.7318 22.9864 15.1268 23.0487C15.5219 23.1111 15.6778 23.3294 15.5947 23.7037L14.659 30.3782C14.6174 30.7109 14.4303 30.8772 14.0976 30.8772C14.056 30.8772 14.0352 30.8772 14.0352 30.8772C13.6194 30.8356 13.4322 30.6069 13.4738 30.191L14.4719 23.5166ZM9.60636 23.0799C9.85587 22.7472 10.1366 22.7057 10.4485 22.9552C10.7604 23.2047 10.7915 23.475 10.542 23.7661L7.61026 27.6335C7.4855 27.7999 7.31916 27.883 7.11123 27.883C6.98648 27.883 6.86172 27.8415 6.73696 27.7583C6.44587 27.5088 6.40428 27.2385 6.61221 26.9474L9.60636 23.0799Z" fill="#A9B5C1"/>
</g>
<defs>
<clipPath id="clip0_182_10685">
<rect width="32.2" height="32" fill="white" transform="matrix(1 0 0 -1 0 32)"/>
</clipPath>
</defs>
</svg>
