<svg width="33" height="32" viewBox="0 0 33 32" fill="none" xmlns="http://www.w3.org/2000/svg">
<g id="Icon">
<path id="Vector" d="M10.1989 10.0429C9.78304 10.0429 9.57511 9.85575 9.57511 9.48149V5.23977C9.57511 4.8655 9.78304 4.67837 10.1989 4.67837H14.4406C14.8149 4.67837 15.002 4.8655 15.002 5.23977V9.48149C15.002 9.85575 14.8149 10.0429 14.4406 10.0429H10.1989ZM10.7603 5.80117V8.92008H13.8168V5.80117H10.7603ZM17.5595 10.0429C17.1852 10.0429 16.9981 9.85575 16.9981 9.48149V5.23977C16.9981 4.8655 17.1852 4.67837 17.5595 4.67837H21.8012C22.2171 4.67837 22.425 4.8655 22.425 5.23977V9.48149C22.425 9.85575 22.2171 10.0429 21.8012 10.0429H17.5595ZM18.1833 5.80117V8.92008H21.2398V5.80117H18.1833ZM14.4406 17.653H10.1989C9.78304 17.653 9.57511 17.4451 9.57511 17.0292V12.8499C9.57511 12.4341 9.78304 12.2261 10.1989 12.2261H14.4406C14.8149 12.2261 15.002 12.4341 15.002 12.8499V17.0292C15.002 17.4451 14.8149 17.653 14.4406 17.653ZM10.7603 13.4113V16.4678H13.8168V13.4113H10.7603ZM17.5595 17.653C17.1852 17.653 16.9981 17.4451 16.9981 17.0292V12.8499C16.9981 12.4341 17.1852 12.2261 17.5595 12.2261H21.8012C22.2171 12.2261 22.425 12.4341 22.425 12.8499V17.0292C22.425 17.4451 22.2171 17.653 21.8012 17.653H17.5595ZM18.1833 13.4113V16.4678H21.2398V13.4113H18.1833ZM31.4075 7.423C31.7817 7.423 31.9689 7.61014 31.9689 7.98441V11.9142V16.1559V19.462V23.7037V30.5653C31.9689 30.9396 31.7817 31.1267 31.4075 31.1267H24.6082H7.39187H0.592654C0.218385 31.1267 0.03125 30.9396 0.03125 30.5653V23.7037V19.462V16.1559V11.9142V7.98441C0.03125 7.61014 0.218385 7.423 0.592654 7.423H6.83047V1.37232C6.83047 0.998055 7.0176 0.810919 7.39187 0.810919H24.6082C24.9825 0.810919 25.1697 0.998055 25.1697 1.37232V7.423H31.4075ZM1.15406 12.4756V15.5945H4.27297V12.4756H1.15406ZM1.15406 20.0234V23.1423H4.27297V20.0234H1.15406ZM6.83047 30.0039V8.54581H1.15406V11.3528H4.83437C5.20864 11.3528 5.39577 11.54 5.39577 11.9142V16.1559C5.39577 16.5302 5.20864 16.7174 4.83437 16.7174H1.15406V18.9006H4.83437C5.20864 18.9006 5.39577 19.0877 5.39577 19.462V23.7037C5.39577 24.078 5.20864 24.2651 4.83437 24.2651H1.15406V30.0039H6.83047ZM18.3704 30.0039V21.77H13.6297V30.0039H18.3704ZM24.0468 7.98441V1.93373H7.95328V7.98441V30.0039H12.5069V21.2086C12.5069 20.8343 12.694 20.6472 13.0683 20.6472H18.9318C19.3061 20.6472 19.4932 20.8343 19.4932 21.2086V30.0039H24.0468V7.98441ZM30.8461 23.1423V20.0234H27.7272V23.1423H30.8461ZM30.8461 15.5945V12.4756H27.7272V15.5945H30.8461ZM30.8461 11.3528V8.54581H25.1697V30.0039H30.8461V24.2651H27.1658C26.7915 24.2651 26.6043 24.078 26.6043 23.7037V19.462C26.6043 19.0877 26.7915 18.9006 27.1658 18.9006H30.8461V16.7174H27.1658C26.7915 16.7174 26.6043 16.5302 26.6043 16.1559V11.9142C26.6043 11.54 26.7915 11.3528 27.1658 11.3528H30.8461Z" fill="#A9B5C1"/>
</g>
</svg>
