<svg width="33" height="32" viewBox="0 0 33 32" fill="none" xmlns="http://www.w3.org/2000/svg">
<g id="Icon" clip-path="url(#clip0_182_10707)">
<path id="Vector" d="M21.7389 7.23587C22.0715 7.23587 22.2379 7.40221 22.2379 7.73489C22.2379 8.06758 22.0715 8.23392 21.7389 8.23392H10.2613C9.92859 8.23392 9.76224 8.06758 9.76224 7.73489C9.76224 7.40221 9.92859 7.23587 10.2613 7.23587H21.7389ZM4.89675 25.3255L3.52443 15.6569C3.48284 15.4074 3.58681 15.2203 3.83632 15.0955L7.3295 13.5361L7.76614 6.8616C7.80773 6.40416 8.00526 6.0091 8.35874 5.67641C8.71221 5.34373 9.11767 5.17739 9.57511 5.17739H12.8188V1.06043C12.8188 0.852501 12.9019 0.706953 13.0683 0.623781C13.8584 0.207928 14.8357 0 16.0001 0C17.1645 0 18.1417 0.207928 18.9318 0.623781C19.0982 0.706953 19.1813 0.852501 19.1813 1.06043V5.17739H22.425C22.8825 5.17739 23.2879 5.34373 23.6414 5.67641C23.9949 6.0091 24.1924 6.40416 24.234 6.8616L24.6706 13.5361L28.1638 15.0955C28.4133 15.2203 28.5173 15.4074 28.4757 15.6569L27.1034 25.3255C27.0618 25.6582 26.8747 25.8038 26.542 25.7622C26.2093 25.7206 26.0637 25.5335 26.1053 25.2008L27.4153 15.9064L23.9845 14.347H23.9221L16.4991 11.1033V25.3255C16.4991 25.6582 16.3327 25.8246 16.0001 25.8246C15.6674 25.8246 15.501 25.6582 15.501 25.3255V11.1033L4.58486 15.9064L5.8948 25.2008C5.93638 25.5335 5.79083 25.7206 5.45815 25.7622C5.45815 25.7622 5.43736 25.7622 5.39577 25.7622C5.10467 25.7622 4.93833 25.6166 4.89675 25.3255ZM13.8168 1.37232V5.17739H18.1833V1.37232C17.5179 1.12281 16.7902 0.998051 16.0001 0.998051C15.2099 0.998051 14.4822 1.12281 13.8168 1.37232ZM8.76419 6.92398L8.38993 13.0994C13.3386 10.937 15.8129 9.85575 15.8129 9.85575H15.8753C15.8753 9.85575 15.8961 9.84535 15.9377 9.82456C15.9793 9.80377 16.0209 9.80377 16.0624 9.82456C16.104 9.84535 16.1248 9.85575 16.1248 9.85575H16.1872L23.6102 13.0994L23.2359 6.92398C23.1943 6.75764 23.0904 6.59129 22.924 6.42495C22.7577 6.25861 22.5914 6.17544 22.425 6.17544H9.57511C9.36718 6.17544 9.19044 6.25861 9.0449 6.42495C8.89935 6.59129 8.80578 6.75764 8.76419 6.92398ZM0.530275 27.883C0.197592 27.883 0.03125 27.7063 0.03125 27.3528C0.03125 26.9994 0.197592 26.8226 0.530275 26.8226C1.44516 26.8226 2.1729 26.4691 2.71351 25.7622C2.79668 25.5958 2.93183 25.5127 3.11897 25.5127C3.3061 25.5127 3.44126 25.5958 3.52443 25.7622C4.06504 26.4691 4.79278 26.8226 5.70766 26.8226C6.62254 26.8226 7.35029 26.4691 7.8909 25.7622C7.97407 25.5958 8.09883 25.5127 8.26517 25.5127C8.43151 25.5127 8.57706 25.5958 8.70182 25.7622C9.24243 26.4691 9.95977 26.8226 10.8539 26.8226C11.7479 26.8226 12.4653 26.4691 13.0059 25.7622C13.1307 25.5958 13.2762 25.5127 13.4426 25.5127C13.6089 25.5127 13.7337 25.5958 13.8168 25.7622C14.3574 26.4691 15.0852 26.8226 16.0001 26.8226C16.9149 26.8226 17.6427 26.4691 18.1833 25.7622C18.2665 25.5958 18.3912 25.5127 18.5576 25.5127C18.7239 25.5127 18.8695 25.5958 18.9942 25.7622C19.5348 26.4691 20.2522 26.8226 21.1463 26.8226C22.0403 26.8226 22.7577 26.4691 23.2983 25.7622C23.4231 25.5958 23.5686 25.5127 23.735 25.5127C23.9013 25.5127 24.0261 25.5958 24.1092 25.7622C24.6914 26.4691 25.4296 26.8226 26.3236 26.8226C27.2177 26.8226 27.9351 26.4691 28.4757 25.7622C28.5589 25.5958 28.694 25.5127 28.8812 25.5127C29.0683 25.5127 29.2034 25.5958 29.2866 25.7622C29.8272 26.4691 30.555 26.8226 31.4698 26.8226C31.8025 26.8226 31.9689 26.9994 31.9689 27.3528C31.9689 27.7063 31.8025 27.883 31.4698 27.883C30.4718 27.883 29.6193 27.5296 28.9123 26.8226C28.1638 27.5296 27.2905 27.883 26.2925 27.883C25.2944 27.883 24.4419 27.5296 23.735 26.8226C23.028 27.5296 22.1651 27.883 21.1463 27.883C20.1274 27.883 19.2645 27.5296 18.5576 26.8226C17.8506 27.5296 16.9981 27.883 16.0001 27.883C15.002 27.883 14.1495 27.5296 13.4426 26.8226C12.694 27.5296 11.8207 27.883 10.8227 27.883C9.82462 27.883 8.97212 27.5296 8.26517 26.8226C7.55822 27.5296 6.70571 27.883 5.70766 27.883C4.70961 27.883 3.83632 27.5296 3.08778 26.8226C2.38083 27.5296 1.52833 27.883 0.530275 27.883ZM31.4698 30.9396C31.8025 30.9396 31.9689 31.1059 31.9689 31.4386C31.9689 31.7713 31.8025 31.9376 31.4698 31.9376C30.4718 31.9376 29.6193 31.5841 28.9123 30.8772C28.1638 31.5841 27.2905 31.9376 26.2925 31.9376C25.2944 31.9376 24.4419 31.5841 23.735 30.8772C23.028 31.5841 22.1651 31.9376 21.1463 31.9376C20.1274 31.9376 19.2645 31.5841 18.5576 30.8772C17.8506 31.5841 16.9981 31.9376 16.0001 31.9376C15.002 31.9376 14.1495 31.5841 13.4426 30.8772C12.694 31.5841 11.8207 31.9376 10.8227 31.9376C9.82462 31.9376 8.97212 31.5841 8.26517 30.8772C7.55822 31.5841 6.70571 31.9376 5.70766 31.9376C4.70961 31.9376 3.83632 31.5841 3.08778 30.8772C2.38083 31.5841 1.52833 31.9376 0.530275 31.9376C0.197592 31.9376 0.03125 31.7713 0.03125 31.4386C0.03125 31.1059 0.197592 30.9396 0.530275 30.9396C1.44516 30.9396 2.1729 30.5653 2.71351 29.8168C2.79668 29.692 2.93183 29.6296 3.11897 29.6296C3.3061 29.6296 3.44126 29.692 3.52443 29.8168C4.06504 30.5653 4.79278 30.9396 5.70766 30.9396C6.62254 30.9396 7.35029 30.5653 7.8909 29.8168C7.97407 29.692 8.09883 29.6296 8.26517 29.6296C8.43151 29.6296 8.57706 29.692 8.70182 29.8168C9.24243 30.5653 9.95977 30.9396 10.8539 30.9396C11.7479 30.9396 12.4653 30.5653 13.0059 29.8168C13.1307 29.692 13.2762 29.6296 13.4426 29.6296C13.6089 29.6296 13.7337 29.692 13.8168 29.8168C14.3574 30.5653 15.0852 30.9396 16.0001 30.9396C16.9149 30.9396 17.6427 30.5653 18.1833 29.8168C18.2665 29.692 18.3912 29.6296 18.5576 29.6296C18.7239 29.6296 18.8695 29.692 18.9942 29.8168C19.5348 30.5653 20.2522 30.9396 21.1463 30.9396C22.0403 30.9396 22.7577 30.5653 23.2983 29.8168C23.4231 29.692 23.5686 29.6296 23.735 29.6296C23.9013 29.6296 24.0261 29.692 24.1092 29.8168C24.6914 30.5653 25.4296 30.9396 26.3236 30.9396C27.2177 30.9396 27.9351 30.5653 28.4757 29.8168C28.5589 29.692 28.694 29.6296 28.8812 29.6296C29.0683 29.6296 29.2034 29.692 29.2866 29.8168C29.8272 30.5653 30.555 30.9396 31.4698 30.9396Z" fill="#A9B5C1"/>
</g>
<defs>
<clipPath id="clip0_182_10707">
<rect width="32.2" height="32" fill="white" transform="matrix(1 0 0 -1 0 32)"/>
</clipPath>
</defs>
</svg>
