<svg width="33" height="32" viewBox="0 0 33 32" fill="none" xmlns="http://www.w3.org/2000/svg">
<g id="Icon">
<path id="Vector" d="M30.5074 1.43473C31.3391 2.30803 31.7966 3.28528 31.8798 4.36651C31.9629 5.44773 31.8278 6.36261 31.4743 7.11115C31.1208 7.85968 30.6946 8.3795 30.1956 8.6706L27.638 10.9786L29.6965 29.2554C29.6965 29.5049 29.6341 29.692 29.5094 29.8168L27.5757 31.6881C27.1598 32.104 26.8063 32.0624 26.5152 31.5634L19.6536 18.3392L14.6634 22.5186L15.7238 29.7544C15.7238 29.9623 15.6406 30.1287 15.4743 30.2534L14.2891 31.501C14.1228 31.6673 13.9356 31.7505 13.7277 31.7505C13.5198 31.7505 13.3327 31.6258 13.1663 31.3763L10.3593 25.5751C9.15331 25.7414 8.17606 25.4087 7.42752 24.577C6.59581 23.7453 6.24233 22.7681 6.36709 21.6453L0.628298 18.7759C0.420371 18.6927 0.306011 18.5367 0.285218 18.308C0.264426 18.0793 0.3372 17.8818 0.503542 17.7154L1.68873 16.5302C1.85507 16.3639 2.0422 16.2807 2.25013 16.2807L9.42362 17.3412L13.6653 12.3509L0.378786 5.42694C0.170858 5.34376 0.0564983 5.17742 0.0357056 4.92791C0.0149129 4.6784 0.0668947 4.49126 0.191651 4.36651L2.12537 2.43278C2.20855 2.30803 2.39568 2.26644 2.68678 2.30803L20.9012 4.36651L23.1468 1.68424C23.5211 1.2268 24.0617 0.821346 24.7687 0.467871C25.4756 0.114393 26.3697 -0.0207596 27.4509 0.0624123C28.5321 0.145582 29.551 0.603024 30.5074 1.43473ZM29.3223 7.54779C29.6134 7.38145 29.9045 7.03837 30.1956 6.51855C30.4866 5.99874 30.6218 5.31257 30.601 4.46007C30.5802 3.60757 30.2267 2.86943 29.5406 2.24565C28.8544 1.62187 28.1059 1.27879 27.295 1.21641C26.484 1.15403 25.8291 1.25799 25.3301 1.5283C24.831 1.7986 24.4776 2.07931 24.2696 2.37041L21.6497 5.2398C21.4834 5.44773 21.2755 5.51011 21.026 5.42694L2.81153 3.43083L1.87586 4.6784L14.9753 11.54C15.1416 11.6648 15.2352 11.8519 15.256 12.1014C15.2768 12.3509 15.2456 12.4965 15.1624 12.538L10.1722 18.464C10.0474 18.6719 9.86027 18.7343 9.61075 18.6511L2.37489 17.6531L2.063 17.9649L7.42752 20.6472C7.80179 20.8135 7.90575 21.0839 7.73941 21.4581C7.44831 22.2482 7.63545 22.976 8.30081 23.6414C8.88301 24.2236 9.61075 24.3899 10.484 24.1404C10.8583 24.0988 11.1286 24.2236 11.295 24.5147L13.9148 29.8792L14.2891 29.5049L13.2287 22.3314C13.2287 22.0403 13.2911 21.8324 13.4158 21.7076L19.3417 16.7798C19.7992 16.4471 20.1735 16.4887 20.4646 16.9045L27.3262 30.0039L28.3242 29.0059L26.2657 10.7291C26.2657 10.5212 26.3281 10.3132 26.4529 10.1053L29.3223 7.54779Z" fill="#A9B5C1"/>
</g>
</svg>
