<svg width="33" height="32" viewBox="0 0 33 32" fill="none" xmlns="http://www.w3.org/2000/svg">
<g id="Icon">
<path id="Vector" d="M10.2925 23.7037C10.2925 23.7037 10.1729 23.8181 9.93378 24.0468C9.69467 24.2755 9.25282 24.3899 8.60825 24.3899C7.96367 24.3899 7.40227 24.1612 6.92404 23.7037C6.44581 23.2463 6.20669 22.6849 6.20669 22.0195C6.20669 21.3541 6.44581 20.7927 6.92404 20.3353C7.40227 19.8779 7.96367 19.6491 8.60825 19.6491C9.25282 19.6491 9.81423 19.8779 10.2925 20.3353C10.7707 20.7927 11.0098 21.3541 11.0098 22.0195C11.0098 22.6849 10.7707 23.2463 10.2925 23.7037ZM9.54392 21.0526C9.54392 21.0526 9.47634 20.9851 9.34119 20.8499C9.20604 20.7148 8.95133 20.6472 8.57706 20.6472C8.20279 20.6472 7.8909 20.7823 7.64139 21.0526C7.39187 21.323 7.26712 21.6452 7.26712 22.0195C7.26712 22.3938 7.39187 22.7161 7.64139 22.9864C7.8909 23.2567 8.20279 23.3918 8.57706 23.3918C8.95133 23.3918 9.27361 23.2567 9.54392 22.9864C9.81423 22.7161 9.94938 22.3938 9.94938 22.0195C9.94938 21.6452 9.81423 21.323 9.54392 21.0526ZM21.7077 20.3353C21.7077 20.3353 21.8272 20.2209 22.0663 19.9922C22.3055 19.7635 22.7473 19.6491 23.3919 19.6491C24.0364 19.6491 24.5979 19.8779 25.0761 20.3353C25.5543 20.7927 25.7934 21.3541 25.7934 22.0195C25.7934 22.6849 25.5543 23.2463 25.0761 23.7037C24.5979 24.1612 24.0364 24.3899 23.3919 24.3899C22.7473 24.3899 22.1859 24.1612 21.7077 23.7037C21.2294 23.2463 20.9903 22.6849 20.9903 22.0195C20.9903 21.3541 21.2294 20.7927 21.7077 20.3353ZM22.4562 22.9864C22.4562 22.9864 22.5238 23.0539 22.6589 23.1891C22.7941 23.3243 23.0488 23.3918 23.4231 23.3918C23.7973 23.3918 24.1092 23.2567 24.3587 22.9864C24.6082 22.7161 24.733 22.3938 24.733 22.0195C24.733 21.6452 24.6082 21.323 24.3587 21.0526C24.1092 20.7823 23.7973 20.6472 23.4231 20.6472C23.0488 20.6472 22.7265 20.7823 22.4562 21.0526C22.1859 21.323 22.0507 21.6452 22.0507 22.0195C22.0507 22.3938 22.1859 22.7161 22.4562 22.9864ZM9.38798 7.85967C9.18005 7.85967 8.89935 7.94284 8.54587 8.10918C8.19239 8.27552 7.93248 8.42107 7.76614 8.54583L4.52248 12.039H12.5069V7.36064C12.5069 7.02796 12.6732 6.86162 13.0059 6.86162H19.9299C20.1794 6.86162 20.4601 6.96558 20.772 7.17351C21.0839 7.38144 21.3022 7.61016 21.427 7.85967L23.5478 12.3509C23.631 12.5172 23.6206 12.6732 23.5166 12.8187C23.4127 12.9643 23.2567 13.0371 23.0488 13.0371H3.33729C3.12937 13.0371 2.97342 12.9435 2.86946 12.7564C2.76549 12.5692 2.79668 12.3925 2.96302 12.2261L7.07998 7.85967C7.28791 7.61016 7.63099 7.38144 8.10922 7.17351C8.58746 6.96558 9.01371 6.86162 9.38798 6.86162H11.0098C11.3425 6.86162 11.5088 7.02796 11.5088 7.36064C11.5088 7.69333 11.3425 7.85967 11.0098 7.85967H9.38798ZM13.5673 7.85967V12.039H22.2379L20.4913 8.23394C20.3665 8.02601 20.1794 7.90125 19.9299 7.85967H13.5673ZM31.9689 17.5283V19.961C31.9689 20.668 31.7505 21.271 31.3139 21.77C30.8773 22.269 30.3262 22.5185 29.6609 22.5185H28.4757C28.3509 23.8077 27.7999 24.8993 26.8227 25.7934C25.8454 26.6875 24.7122 27.1345 23.4231 27.1345C22.0092 27.1345 20.8032 26.6355 19.8051 25.6374C18.8071 24.6394 18.3081 23.4334 18.3081 22.0195C18.3081 20.6056 18.8071 19.3996 19.8051 18.4016C20.8032 17.4035 22.0092 16.9045 23.4231 16.9045C24.7122 16.9045 25.8454 17.3515 26.8227 18.2456C27.7999 19.1397 28.3509 20.2313 28.4757 21.5205H29.6609C30.0351 21.5205 30.347 21.3645 30.5966 21.0526C30.8461 20.7408 30.9708 20.3769 30.9708 19.961V17.9649C30.1391 17.8402 29.4426 17.4555 28.8812 16.8109C28.3197 16.1664 28.039 15.4282 28.039 14.5965C28.039 14.3886 28.0598 14.2014 28.1014 14.0351L26.1677 13.3489C25.3776 13.0994 24.7954 12.6004 24.4211 11.8519L22.3626 7.42302C22.1547 7.00717 21.8116 6.64329 21.3334 6.3314C20.8552 6.01951 20.3873 5.86357 19.9299 5.86357H9.38798C8.88895 5.86357 8.33794 5.98832 7.73495 6.23783C7.13196 6.48735 6.66413 6.79924 6.33144 7.17351L1.5907 12.1638C1.21644 12.5796 1.0293 13.0578 1.0293 13.5985V19.961C1.0293 20.3769 1.18525 20.7408 1.49714 21.0526C1.80903 21.3645 2.1729 21.5205 2.58875 21.5205H3.52443C3.64918 20.2313 4.20019 19.1397 5.17745 18.2456C6.15471 17.3515 7.29831 16.9045 8.60825 16.9045C9.91819 16.9045 11.0618 17.3515 12.039 18.2456C13.0163 19.1397 13.5673 20.2313 13.6921 21.5205H16.7486C17.0813 21.5205 17.2476 21.6868 17.2476 22.0195C17.2476 22.3522 17.0813 22.5185 16.7486 22.5185H13.6921C13.5673 23.8077 13.0163 24.8993 12.039 25.7934C11.0618 26.6875 9.91819 27.1345 8.60825 27.1345C7.29831 27.1345 6.15471 26.6875 5.17745 25.7934C4.20019 24.8993 3.64918 23.8077 3.52443 22.5185H2.58875C1.8818 22.5185 1.27881 22.269 0.779788 21.77C0.280763 21.271 0.03125 20.668 0.03125 19.961V13.5985C0.03125 12.7668 0.301555 12.0598 0.842166 11.4776L5.58291 6.48735C5.99876 6.02991 6.58096 5.63485 7.3295 5.30216C8.07803 4.96948 8.76419 4.80314 9.38798 4.80314H19.9299C20.5953 4.80314 21.2502 5.01106 21.8948 5.42692C22.5394 5.84277 23.0072 6.36259 23.2983 6.98637L25.3568 11.4152C25.6063 11.9142 25.9806 12.2469 26.4796 12.4133C28.0598 12.9123 28.85 13.1618 28.85 13.1618C29.7233 13.4529 30.4614 14.0247 31.0644 14.8772C31.6674 15.7297 31.9689 16.6134 31.9689 17.5283ZM11.4776 19.1501C11.4776 19.1501 11.2749 18.9526 10.8695 18.5575C10.464 18.1625 9.69987 17.9649 8.57706 17.9649C7.45425 17.9649 6.49779 18.36 5.70766 19.1501C4.91754 19.9402 4.52248 20.8967 4.52248 22.0195C4.52248 23.1423 4.91754 24.0988 5.70766 24.8889C6.49779 25.679 7.45425 26.0741 8.57706 26.0741C9.69987 26.0741 10.6667 25.679 11.4776 24.8889C12.2886 24.0988 12.694 23.1423 12.694 22.0195C12.694 20.8967 12.2886 19.9402 11.4776 19.1501ZM20.5225 24.8889C20.5225 24.8889 20.7252 25.0864 21.1307 25.4815C21.5361 25.8766 22.3003 26.0741 23.4231 26.0741C24.5459 26.0741 25.5023 25.679 26.2925 24.8889C27.0826 24.0988 27.4776 23.1423 27.4776 22.0195C27.4776 20.8967 27.0826 19.9402 26.2925 19.1501C25.5023 18.36 24.5459 17.9649 23.4231 17.9649C22.3003 17.9649 21.3334 18.36 20.5225 19.1501C19.7116 19.9402 19.3061 20.8967 19.3061 22.0195C19.3061 23.1423 19.7116 24.0988 20.5225 24.8889ZM29.0371 14.5965C29.0371 15.1371 29.2138 15.6257 29.5673 16.0624C29.9208 16.499 30.3678 16.7797 30.9084 16.9045C30.6589 15.8233 30.0351 14.9916 29.0371 14.4094C29.0371 14.451 29.0371 14.5133 29.0371 14.5965Z" fill="#A9B5C1"/>
</g>
</svg>
