<svg width="131" height="130" viewBox="0 0 131 130" fill="none" xmlns="http://www.w3.org/2000/svg">
<path d="M90.1275 94.5224V105.419H79.2309V94.5224H90.1275ZM71.1217 56.7641V67.6608H60.4784V56.7641H71.1217ZM90.1275 75.77V86.4132H79.2309V75.77H90.1275ZM90.1275 56.7641V67.6608H79.2309V56.7641H90.1275ZM109.133 56.7641V67.6608H98.2367V56.7641H109.133ZM109.133 75.77V86.4132H98.2367V75.77H109.133ZM71.1217 75.77V86.4132H60.4784V75.77H71.1217ZM52.3693 56.7641V67.6608H41.4726V56.7641H52.3693ZM33.3634 75.77V86.4132H22.4667V75.77H33.3634ZM52.3693 94.5224V105.419H41.4726V94.5224H52.3693ZM33.3634 94.5224V105.419H22.4667V94.5224H33.3634ZM52.3693 75.77V86.4132H41.4726V75.77H52.3693ZM71.1217 94.5224V105.419H60.4784V94.5224H71.1217ZM106.346 10.8967H130.673V129.747H0.926758V10.8967H25.2542V0H30.5759V10.8967H101.024V0H106.346V10.8967ZM125.352 124.425V43.3333H6.24839V124.425H125.352ZM125.352 37.7583V16.2183H106.346V21.54H101.024V16.2183H30.5759V21.54H25.2542V16.2183H6.24839V37.7583H125.352Z" fill="#ABB4AD"/>
</svg>
